<svg width="129" height="21" viewBox="0 0 129 21" fill="none" xmlns="http://www.w3.org/2000/svg">
<path d="M6.584 20.168C5.352 20.168 4.248 19.968 3.272 19.568C2.296 19.168 1.512 18.576 0.92 17.792C0.344 17.008 0.0400001 16.064 0.00800008 14.96H4.376C4.44 15.584 4.656 16.064 5.024 16.4C5.392 16.72 5.872 16.88 6.464 16.88C7.072 16.88 7.552 16.744 7.904 16.472C8.256 16.184 8.432 15.792 8.432 15.296C8.432 14.88 8.288 14.536 8 14.264C7.728 13.992 7.384 13.768 6.968 13.592C6.568 13.416 5.992 13.216 5.24 12.992C4.152 12.656 3.264 12.32 2.576 11.984C1.888 11.648 1.296 11.152 0.8 10.496C0.304 9.84 0.0560001 8.984 0.0560001 7.928C0.0560001 6.36 0.624 5.136 1.76 4.256C2.896 3.36 4.376 2.912 6.2 2.912C8.056 2.912 9.552 3.36 10.688 4.256C11.824 5.136 12.432 6.368 12.512 7.952H8.072C8.04 7.408 7.84 6.984 7.472 6.68C7.104 6.36 6.632 6.2 6.056 6.2C5.56 6.2 5.16 6.336 4.856 6.608C4.552 6.864 4.4 7.24 4.4 7.736C4.4 8.28 4.656 8.704 5.168 9.008C5.68 9.312 6.48 9.64 7.568 9.992C8.656 10.36 9.536 10.712 10.208 11.048C10.896 11.384 11.488 11.872 11.984 12.512C12.48 13.152 12.728 13.976 12.728 14.984C12.728 15.944 12.48 16.816 11.984 17.6C11.504 18.384 10.8 19.008 9.872 19.472C8.944 19.936 7.848 20.168 6.584 20.168ZM21.3496 20.192C20.0376 20.192 18.8536 19.912 17.7976 19.352C16.7576 18.792 15.9336 17.992 15.3256 16.952C14.7336 15.912 14.4376 14.696 14.4376 13.304C14.4376 11.928 14.7416 10.72 15.3496 9.68C15.9576 8.624 16.7896 7.816 17.8456 7.256C18.9016 6.696 20.0856 6.416 21.3976 6.416C22.7096 6.416 23.8936 6.696 24.9496 7.256C26.0056 7.816 26.8376 8.624 27.4456 9.68C28.0536 10.72 28.3576 11.928 28.3576 13.304C28.3576 14.68 28.0456 15.896 27.4216 16.952C26.8136 17.992 25.9736 18.792 24.9016 19.352C23.8456 19.912 22.6616 20.192 21.3496 20.192ZM21.3496 16.64C22.1336 16.64 22.7976 16.352 23.3416 15.776C23.9016 15.2 24.1816 14.376 24.1816 13.304C24.1816 12.232 23.9096 11.408 23.3656 10.832C22.8376 10.256 22.1816 9.968 21.3976 9.968C20.5976 9.968 19.9336 10.256 19.4056 10.832C18.8776 11.392 18.6136 12.216 18.6136 13.304C18.6136 14.376 18.8696 15.2 19.3816 15.776C19.9096 16.352 20.5656 16.64 21.3496 16.64ZM34.6389 8.504C35.0229 7.88 35.5749 7.376 36.2949 6.992C37.0149 6.608 37.8389 6.416 38.7669 6.416C39.8709 6.416 40.8709 6.696 41.7669 7.256C42.6629 7.816 43.3669 8.616 43.8789 9.656C44.4069 10.696 44.6709 11.904 44.6709 13.28C44.6709 14.656 44.4069 15.872 43.8789 16.928C43.3669 17.968 42.6629 18.776 41.7669 19.352C40.8709 19.912 39.8709 20.192 38.7669 20.192C37.8229 20.192 36.9989 20.008 36.2949 19.64C35.5909 19.256 35.0389 18.752 34.6389 18.128V20H30.5349V2.24H34.6389V8.504ZM40.4949 13.28C40.4949 12.256 40.2069 11.456 39.6309 10.88C39.0709 10.288 38.3749 9.992 37.5429 9.992C36.7269 9.992 36.0309 10.288 35.4549 10.88C34.8949 11.472 34.6149 12.28 34.6149 13.304C34.6149 14.328 34.8949 15.136 35.4549 15.728C36.0309 16.32 36.7269 16.616 37.5429 16.616C38.3589 16.616 39.0549 16.32 39.6309 15.728C40.2069 15.12 40.4949 14.304 40.4949 13.28ZM50.9279 8.84C51.4079 8.104 52.0079 7.528 52.7279 7.112C53.4479 6.68 54.2479 6.464 55.1279 6.464V10.808H53.9999C52.9759 10.808 52.2079 11.032 51.6959 11.48C51.1839 11.912 50.9279 12.68 50.9279 13.784V20H46.8239V6.608H50.9279V8.84ZM69.7136 13.088C69.7136 13.472 69.6896 13.872 69.6416 14.288H60.3536C60.4176 15.12 60.6816 15.76 61.1456 16.208C61.6256 16.64 62.2096 16.856 62.8976 16.856C63.9216 16.856 64.6336 16.424 65.0336 15.56H69.4016C69.1776 16.44 68.7696 17.232 68.1776 17.936C67.6016 18.64 66.8736 19.192 65.9936 19.592C65.1136 19.992 64.1296 20.192 63.0416 20.192C61.7296 20.192 60.5616 19.912 59.5376 19.352C58.5136 18.792 57.7136 17.992 57.1376 16.952C56.5616 15.912 56.2736 14.696 56.2736 13.304C56.2736 11.912 56.5536 10.696 57.1136 9.656C57.6896 8.616 58.4896 7.816 59.5136 7.256C60.5376 6.696 61.7136 6.416 63.0416 6.416C64.3376 6.416 65.4896 6.688 66.4976 7.232C67.5056 7.776 68.2896 8.552 68.8496 9.56C69.4256 10.568 69.7136 11.744 69.7136 13.088ZM65.5136 12.008C65.5136 11.304 65.2736 10.744 64.7936 10.328C64.3136 9.912 63.7136 9.704 62.9936 9.704C62.3056 9.704 61.7216 9.904 61.2416 10.304C60.7776 10.704 60.4896 11.272 60.3776 12.008H65.5136ZM96.0446 3.152V20H91.9406V9.896L88.1726 20H84.8606L81.0686 9.872V20H76.9646V3.152H81.8126L86.5406 14.816L91.2206 3.152H96.0446ZM101.06 5.216C100.34 5.216 99.7478 5.008 99.2838 4.592C98.8358 4.16 98.6118 3.632 98.6118 3.008C98.6118 2.368 98.8358 1.84 99.2838 1.424C99.7478 0.991999 100.34 0.775999 101.06 0.775999C101.764 0.775999 102.34 0.991999 102.788 1.424C103.252 1.84 103.484 2.368 103.484 3.008C103.484 3.632 103.252 4.16 102.788 4.592C102.34 5.008 101.764 5.216 101.06 5.216ZM103.1 6.608V20H98.9958V6.608H103.1ZM123.162 6.464C124.826 6.464 126.146 6.968 127.122 7.976C128.114 8.984 128.61 10.384 128.61 12.176V20H124.53V12.728C124.53 11.864 124.298 11.2 123.834 10.736C123.386 10.256 122.762 10.016 121.962 10.016C121.162 10.016 120.53 10.256 120.066 10.736C119.618 11.2 119.394 11.864 119.394 12.728V20H115.314V12.728C115.314 11.864 115.082 11.2 114.618 10.736C114.17 10.256 113.546 10.016 112.746 10.016C111.946 10.016 111.314 10.256 110.85 10.736C110.402 11.2 110.178 11.864 110.178 12.728V20H106.074V6.608H110.178V8.288C110.594 7.728 111.138 7.288 111.81 6.968C112.482 6.632 113.242 6.464 114.09 6.464C115.098 6.464 115.994 6.68 116.778 7.112C117.578 7.544 118.202 8.16 118.65 8.96C119.114 8.224 119.746 7.624 120.546 7.16C121.346 6.696 122.218 6.464 123.162 6.464Z" fill="white"/>
</svg>
