<svg width="375" height="134" viewBox="0 0 375 134" fill="none" xmlns="http://www.w3.org/2000/svg">
<rect width="118" height="34" rx="8" fill="url(#paint0_linear_15_9)"/>
<path d="M19.76 12.66L17.288 21H15.74L13.988 14.688L12.128 21L10.592 21.012L8.228 12.66H9.68L11.408 19.452L13.28 12.66H14.816L16.556 19.416L18.296 12.66H19.76ZM23.7563 21.108C23.1323 21.108 22.5683 20.968 22.0643 20.688C21.5603 20.4 21.1643 20 20.8763 19.488C20.5883 18.968 20.4443 18.368 20.4443 17.688C20.4443 17.016 20.5923 16.42 20.8883 15.9C21.1843 15.38 21.5883 14.98 22.1003 14.7C22.6123 14.42 23.1843 14.28 23.8163 14.28C24.4483 14.28 25.0203 14.42 25.5323 14.7C26.0443 14.98 26.4483 15.38 26.7443 15.9C27.0403 16.42 27.1883 17.016 27.1883 17.688C27.1883 18.36 27.0363 18.956 26.7323 19.476C26.4283 19.996 26.0123 20.4 25.4843 20.688C24.9643 20.968 24.3883 21.108 23.7563 21.108ZM23.7563 19.92C24.1083 19.92 24.4363 19.836 24.7403 19.668C25.0523 19.5 25.3043 19.248 25.4963 18.912C25.6883 18.576 25.7843 18.168 25.7843 17.688C25.7843 17.208 25.6923 16.804 25.5083 16.476C25.3243 16.14 25.0803 15.888 24.7763 15.72C24.4723 15.552 24.1443 15.468 23.7923 15.468C23.4403 15.468 23.1123 15.552 22.8083 15.72C22.5123 15.888 22.2763 16.14 22.1003 16.476C21.9243 16.804 21.8363 17.208 21.8363 17.688C21.8363 18.4 22.0163 18.952 22.3763 19.344C22.7443 19.728 23.2043 19.92 23.7563 19.92ZM29.9086 15.348C30.1086 15.012 30.3726 14.752 30.7006 14.568C31.0366 14.376 31.4326 14.28 31.8886 14.28V15.696H31.5406C31.0046 15.696 30.5966 15.832 30.3166 16.104C30.0446 16.376 29.9086 16.848 29.9086 17.52V21H28.5406V14.388H29.9086V15.348ZM35.7621 17.7L38.8101 21H36.9621L34.5141 18.156V21H33.1461V12.12H34.5141V17.28L36.9141 14.388H38.8101L35.7621 17.7ZM43.6038 13.512C43.3558 13.512 43.1478 13.428 42.9798 13.26C42.8118 13.092 42.7278 12.884 42.7278 12.636C42.7278 12.388 42.8118 12.18 42.9798 12.012C43.1478 11.844 43.3558 11.76 43.6038 11.76C43.8438 11.76 44.0478 11.844 44.2158 12.012C44.3838 12.18 44.4678 12.388 44.4678 12.636C44.4678 12.884 44.3838 13.092 44.2158 13.26C44.0478 13.428 43.8438 13.512 43.6038 13.512ZM44.2758 14.388V21H42.9078V14.388H44.2758ZM49.4079 14.28C49.9279 14.28 50.3919 14.388 50.7999 14.604C51.2159 14.82 51.5399 15.14 51.7719 15.564C52.0039 15.988 52.1199 16.5 52.1199 17.1V21H50.7639V17.304C50.7639 16.712 50.6159 16.26 50.3199 15.948C50.0239 15.628 49.6199 15.468 49.1079 15.468C48.5959 15.468 48.1879 15.628 47.8839 15.948C47.5879 16.26 47.4399 16.712 47.4399 17.304V21H46.0719V14.388H47.4399V15.144C47.6639 14.872 47.9479 14.66 48.2919 14.508C48.6439 14.356 49.0159 14.28 49.4079 14.28ZM58.35 15.36C58.582 15.056 58.898 14.8 59.298 14.592C59.698 14.384 60.15 14.28 60.654 14.28C61.23 14.28 61.754 14.424 62.226 14.712C62.706 14.992 63.082 15.388 63.354 15.9C63.626 16.412 63.762 17 63.762 17.664C63.762 18.328 63.626 18.924 63.354 19.452C63.082 19.972 62.706 20.38 62.226 20.676C61.754 20.964 61.23 21.108 60.654 21.108C60.15 21.108 59.702 21.008 59.31 20.808C58.918 20.6 58.598 20.344 58.35 20.04V24.144H56.982V14.388H58.35V15.36ZM62.37 17.664C62.37 17.208 62.274 16.816 62.082 16.488C61.898 16.152 61.65 15.9 61.338 15.732C61.034 15.556 60.706 15.468 60.354 15.468C60.01 15.468 59.682 15.556 59.37 15.732C59.066 15.908 58.818 16.164 58.626 16.5C58.442 16.836 58.35 17.232 58.35 17.688C58.35 18.144 58.442 18.544 58.626 18.888C58.818 19.224 59.066 19.48 59.37 19.656C59.682 19.832 60.01 19.92 60.354 19.92C60.706 19.92 61.034 19.832 61.338 19.656C61.65 19.472 61.898 19.208 62.082 18.864C62.274 18.52 62.37 18.12 62.37 17.664ZM66.4828 15.348C66.6828 15.012 66.9468 14.752 67.2748 14.568C67.6108 14.376 68.0068 14.28 68.4628 14.28V15.696H68.1148C67.5788 15.696 67.1708 15.832 66.8908 16.104C66.6188 16.376 66.4828 16.848 66.4828 17.52V21H65.1148V14.388H66.4828V15.348ZM72.5883 21.108C71.9643 21.108 71.4003 20.968 70.8963 20.688C70.3923 20.4 69.9963 20 69.7083 19.488C69.4203 18.968 69.2763 18.368 69.2763 17.688C69.2763 17.016 69.4243 16.42 69.7203 15.9C70.0163 15.38 70.4203 14.98 70.9323 14.7C71.4443 14.42 72.0163 14.28 72.6483 14.28C73.2803 14.28 73.8523 14.42 74.3643 14.7C74.8763 14.98 75.2803 15.38 75.5763 15.9C75.8723 16.42 76.0203 17.016 76.0203 17.688C76.0203 18.36 75.8683 18.956 75.5643 19.476C75.2603 19.996 74.8443 20.4 74.3163 20.688C73.7963 20.968 73.2203 21.108 72.5883 21.108ZM72.5883 19.92C72.9403 19.92 73.2683 19.836 73.5723 19.668C73.8843 19.5 74.1363 19.248 74.3283 18.912C74.5203 18.576 74.6163 18.168 74.6163 17.688C74.6163 17.208 74.5243 16.804 74.3403 16.476C74.1563 16.14 73.9123 15.888 73.6083 15.72C73.3043 15.552 72.9763 15.468 72.6243 15.468C72.2723 15.468 71.9443 15.552 71.6403 15.72C71.3443 15.888 71.1083 16.14 70.9323 16.476C70.7563 16.804 70.6683 17.208 70.6683 17.688C70.6683 18.4 70.8483 18.952 71.2083 19.344C71.5763 19.728 72.0363 19.92 72.5883 19.92ZM80.0367 14.28C80.5487 14.28 81.0007 14.384 81.3927 14.592C81.7927 14.792 82.1047 15.044 82.3287 15.348V14.388H83.7087V21.108C83.7087 21.716 83.5807 22.256 83.3247 22.728C83.0687 23.208 82.6967 23.584 82.2087 23.856C81.7287 24.128 81.1527 24.264 80.4807 24.264C79.5847 24.264 78.8407 24.052 78.2487 23.628C77.6567 23.212 77.3207 22.644 77.2407 21.924H78.5967C78.7007 22.268 78.9207 22.544 79.2567 22.752C79.6007 22.968 80.0087 23.076 80.4807 23.076C81.0327 23.076 81.4767 22.908 81.8127 22.572C82.1567 22.236 82.3287 21.748 82.3287 21.108V20.004C82.0967 20.316 81.7807 20.58 81.3807 20.796C80.9887 21.004 80.5407 21.108 80.0367 21.108C79.4607 21.108 78.9327 20.964 78.4527 20.676C77.9807 20.38 77.6047 19.972 77.3247 19.452C77.0527 18.924 76.9167 18.328 76.9167 17.664C76.9167 17 77.0527 16.412 77.3247 15.9C77.6047 15.388 77.9807 14.992 78.4527 14.712C78.9327 14.424 79.4607 14.28 80.0367 14.28ZM82.3287 17.688C82.3287 17.232 82.2327 16.836 82.0407 16.5C81.8567 16.164 81.6127 15.908 81.3087 15.732C81.0047 15.556 80.6767 15.468 80.3247 15.468C79.9727 15.468 79.6447 15.556 79.3407 15.732C79.0367 15.9 78.7887 16.152 78.5967 16.488C78.4127 16.816 78.3207 17.208 78.3207 17.664C78.3207 18.12 78.4127 18.52 78.5967 18.864C78.7887 19.208 79.0367 19.472 79.3407 19.656C79.6527 19.832 79.9807 19.92 80.3247 19.92C80.6767 19.92 81.0047 19.832 81.3087 19.656C81.6127 19.48 81.8567 19.224 82.0407 18.888C82.2327 18.544 82.3287 18.144 82.3287 17.688ZM86.8735 15.348C87.0735 15.012 87.3375 14.752 87.6655 14.568C88.0015 14.376 88.3975 14.28 88.8535 14.28V15.696H88.5055C87.9695 15.696 87.5615 15.832 87.2815 16.104C87.0095 16.376 86.8735 16.848 86.8735 17.52V21H85.5055V14.388H86.8735V15.348ZM96.1709 17.532C96.1709 17.78 96.1549 18.004 96.1229 18.204H91.0709C91.1109 18.732 91.3069 19.156 91.6589 19.476C92.0109 19.796 92.4429 19.956 92.9549 19.956C93.6909 19.956 94.2109 19.648 94.5149 19.032H95.9909C95.7909 19.64 95.4269 20.14 94.8989 20.532C94.3789 20.916 93.7309 21.108 92.9549 21.108C92.3229 21.108 91.7549 20.968 91.2509 20.688C90.7549 20.4 90.3629 20 90.0749 19.488C89.7949 18.968 89.6549 18.368 89.6549 17.688C89.6549 17.008 89.7909 16.412 90.0629 15.9C90.3429 15.38 90.7309 14.98 91.2269 14.7C91.7309 14.42 92.3069 14.28 92.9549 14.28C93.5789 14.28 94.1349 14.416 94.6229 14.688C95.1109 14.96 95.4909 15.344 95.7629 15.84C96.0349 16.328 96.1709 16.892 96.1709 17.532ZM94.7429 17.1C94.7349 16.596 94.5549 16.192 94.2029 15.888C93.8509 15.584 93.4149 15.432 92.8949 15.432C92.4229 15.432 92.0189 15.584 91.6829 15.888C91.3469 16.184 91.1469 16.588 91.0829 17.1H94.7429ZM99.9172 21.108C99.3972 21.108 98.9292 21.016 98.5132 20.832C98.1052 20.64 97.7812 20.384 97.5412 20.064C97.3012 19.736 97.1732 19.372 97.1572 18.972H98.5732C98.5972 19.252 98.7292 19.488 98.9692 19.68C99.2172 19.864 99.5252 19.956 99.8932 19.956C100.277 19.956 100.573 19.884 100.781 19.74C100.997 19.588 101.105 19.396 101.105 19.164C101.105 18.916 100.985 18.732 100.745 18.612C100.513 18.492 100.141 18.36 99.6292 18.216C99.1332 18.08 98.7292 17.948 98.4172 17.82C98.1052 17.692 97.8332 17.496 97.6012 17.232C97.3772 16.968 97.2652 16.62 97.2652 16.188C97.2652 15.836 97.3692 15.516 97.5772 15.228C97.7852 14.932 98.0812 14.7 98.4652 14.532C98.8572 14.364 99.3052 14.28 99.8092 14.28C100.561 14.28 101.165 14.472 101.621 14.856C102.085 15.232 102.333 15.748 102.365 16.404H100.997C100.973 16.108 100.853 15.872 100.637 15.696C100.421 15.52 100.129 15.432 99.7612 15.432C99.4012 15.432 99.1252 15.5 98.9332 15.636C98.7412 15.772 98.6452 15.952 98.6452 16.176C98.6452 16.352 98.7092 16.5 98.8372 16.62C98.9652 16.74 99.1212 16.836 99.3052 16.908C99.4892 16.972 99.7612 17.056 100.121 17.16C100.601 17.288 100.993 17.42 101.297 17.556C101.609 17.684 101.877 17.876 102.101 18.132C102.325 18.388 102.441 18.728 102.449 19.152C102.449 19.528 102.345 19.864 102.137 20.16C101.929 20.456 101.633 20.688 101.249 20.856C100.873 21.024 100.429 21.108 99.9172 21.108ZM106.327 21.108C105.807 21.108 105.339 21.016 104.923 20.832C104.515 20.64 104.191 20.384 103.951 20.064C103.711 19.736 103.583 19.372 103.567 18.972H104.983C105.007 19.252 105.139 19.488 105.379 19.68C105.627 19.864 105.935 19.956 106.303 19.956C106.687 19.956 106.983 19.884 107.191 19.74C107.407 19.588 107.515 19.396 107.515 19.164C107.515 18.916 107.395 18.732 107.155 18.612C106.923 18.492 106.551 18.36 106.039 18.216C105.543 18.08 105.139 17.948 104.827 17.82C104.515 17.692 104.243 17.496 104.011 17.232C103.787 16.968 103.675 16.62 103.675 16.188C103.675 15.836 103.779 15.516 103.987 15.228C104.195 14.932 104.491 14.7 104.875 14.532C105.267 14.364 105.715 14.28 106.219 14.28C106.971 14.28 107.575 14.472 108.031 14.856C108.495 15.232 108.743 15.748 108.775 16.404H107.407C107.383 16.108 107.263 15.872 107.047 15.696C106.831 15.52 106.539 15.432 106.171 15.432C105.811 15.432 105.535 15.5 105.343 15.636C105.151 15.772 105.055 15.952 105.055 16.176C105.055 16.352 105.119 16.5 105.247 16.62C105.375 16.74 105.531 16.836 105.715 16.908C105.899 16.972 106.171 17.056 106.531 17.16C107.011 17.288 107.403 17.42 107.707 17.556C108.019 17.684 108.287 17.876 108.511 18.132C108.735 18.388 108.851 18.728 108.859 19.152C108.859 19.528 108.755 19.864 108.547 20.16C108.339 20.456 108.043 20.688 107.659 20.856C107.283 21.024 106.839 21.108 106.327 21.108Z" fill="white"/>
<rect y="42" width="24" height="24" fill="#D9D9D9"/>
<rect x="32" y="42" width="24" height="24" fill="#D9D9D9"/>
<rect x="64" y="42" width="24" height="24" fill="#D9D9D9"/>
<path d="M9.072 80.768V82.96H6.096V92H3.36V82.96H0.384V80.768H9.072ZM13.3891 83.072V92H10.6531V83.072H13.3891ZM13.8851 80.848L10.0291 82.464V80.576L13.8851 78.72V80.848ZM20.5618 89.68V92H19.1698C18.1778 92 17.4044 91.76 16.8498 91.28C16.2951 90.7893 16.0178 89.9947 16.0178 88.896V85.344H14.9298V83.072H16.0178V80.896H18.7538V83.072H20.5458V85.344H18.7538V88.928C18.7538 89.1947 18.8178 89.3867 18.9458 89.504C19.0738 89.6213 19.2871 89.68 19.5858 89.68H20.5618ZM30.9018 83.072V92H28.1658V90.784C27.8884 91.1787 27.5098 91.4987 27.0298 91.744C26.5604 91.9787 26.0378 92.096 25.4618 92.096C24.7791 92.096 24.1764 91.9467 23.6538 91.648C23.1311 91.3387 22.7258 90.896 22.4378 90.32C22.1498 89.744 22.0058 89.0667 22.0058 88.288V83.072H24.7258V87.92C24.7258 88.5173 24.8804 88.9813 25.1898 89.312C25.4991 89.6427 25.9151 89.808 26.4378 89.808C26.9711 89.808 27.3924 89.6427 27.7018 89.312C28.0111 88.9813 28.1658 88.5173 28.1658 87.92V83.072H30.9018ZM35.603 80.16V92H32.867V80.16H35.603ZM41.6498 92.128C40.7751 92.128 39.9858 91.9413 39.2818 91.568C38.5884 91.1947 38.0391 90.6613 37.6338 89.968C37.2391 89.2747 37.0418 88.464 37.0418 87.536C37.0418 86.6187 37.2444 85.8133 37.6497 85.12C38.0551 84.416 38.6098 83.8773 39.3138 83.504C40.0178 83.1307 40.8071 82.944 41.6818 82.944C42.5564 82.944 43.3458 83.1307 44.0498 83.504C44.7538 83.8773 45.3084 84.416 45.7138 85.12C46.1191 85.8133 46.3218 86.6187 46.3218 87.536C46.3218 88.4533 46.1138 89.264 45.6978 89.968C45.2924 90.6613 44.7324 91.1947 44.0178 91.568C43.3138 91.9413 42.5244 92.128 41.6498 92.128ZM41.6498 89.76C42.1724 89.76 42.6151 89.568 42.9778 89.184C43.3511 88.8 43.5378 88.2507 43.5378 87.536C43.5378 86.8213 43.3564 86.272 42.9938 85.888C42.6418 85.504 42.2044 85.312 41.6818 85.312C41.1484 85.312 40.7058 85.504 40.3538 85.888C40.0018 86.2613 39.8258 86.8107 39.8258 87.536C39.8258 88.2507 39.9964 88.8 40.3378 89.184C40.6898 89.568 41.1271 89.76 41.6498 89.76ZM50.6199 87.52C50.6199 86.6027 50.7905 85.7973 51.1319 85.104C51.4839 84.4107 51.9585 83.8773 52.5559 83.504C53.1532 83.1307 53.8199 82.944 54.5559 82.944C55.1425 82.944 55.6759 83.0667 56.1559 83.312C56.6465 83.5573 57.0305 83.888 57.3079 84.304V80.16H60.0439V92H57.3079V90.72C57.0519 91.1467 56.6839 91.488 56.2039 91.744C55.7345 92 55.1852 92.128 54.5559 92.128C53.8199 92.128 53.1532 91.9413 52.5559 91.568C51.9585 91.184 51.4839 90.6453 51.1319 89.952C50.7905 89.248 50.6199 88.4373 50.6199 87.52ZM57.3079 87.536C57.3079 86.8533 57.1159 86.3147 56.7319 85.92C56.3585 85.5253 55.8999 85.328 55.3559 85.328C54.8119 85.328 54.3479 85.5253 53.9639 85.92C53.5905 86.304 53.4039 86.8373 53.4039 87.52C53.4039 88.2027 53.5905 88.7467 53.9639 89.152C54.3479 89.5467 54.8119 89.744 55.3559 89.744C55.8999 89.744 56.3585 89.5467 56.7319 89.152C57.1159 88.7573 57.3079 88.2187 57.3079 87.536ZM66.0873 92.128C65.2126 92.128 64.4233 91.9413 63.7193 91.568C63.0259 91.1947 62.4766 90.6613 62.0713 89.968C61.6766 89.2747 61.4793 88.464 61.4793 87.536C61.4793 86.6187 61.6819 85.8133 62.0872 85.12C62.4926 84.416 63.0473 83.8773 63.7513 83.504C64.4553 83.1307 65.2446 82.944 66.1193 82.944C66.9939 82.944 67.7833 83.1307 68.4873 83.504C69.1913 83.8773 69.7459 84.416 70.1513 85.12C70.5566 85.8133 70.7593 86.6187 70.7593 87.536C70.7593 88.4533 70.5513 89.264 70.1353 89.968C69.7299 90.6613 69.1699 91.1947 68.4553 91.568C67.7513 91.9413 66.9619 92.128 66.0873 92.128ZM66.0873 89.76C66.6099 89.76 67.0526 89.568 67.4153 89.184C67.7886 88.8 67.9753 88.2507 67.9753 87.536C67.9753 86.8213 67.7939 86.272 67.4313 85.888C67.0793 85.504 66.6419 85.312 66.1193 85.312C65.5859 85.312 65.1433 85.504 64.7913 85.888C64.4393 86.2613 64.2633 86.8107 64.2633 87.536C64.2633 88.2507 64.4339 88.8 64.7753 89.184C65.1273 89.568 65.5646 89.76 66.0873 89.76ZM84.1614 84.384C84.1614 85.0347 84.012 85.632 83.7134 86.176C83.4147 86.7093 82.956 87.1413 82.3374 87.472C81.7187 87.8027 80.9507 87.968 80.0334 87.968H78.3374V92H75.6014V80.768H80.0334C80.9294 80.768 81.6867 80.9227 82.3054 81.232C82.924 81.5413 83.388 81.968 83.6974 82.512C84.0067 83.056 84.1614 83.68 84.1614 84.384ZM79.8254 85.792C80.348 85.792 80.7374 85.6693 80.9934 85.424C81.2494 85.1787 81.3774 84.832 81.3774 84.384C81.3774 83.936 81.2494 83.5893 80.9934 83.344C80.7374 83.0987 80.348 82.976 79.8254 82.976H78.3374V85.792H79.8254ZM88.3218 84.56C88.6418 84.0693 89.0418 83.6853 89.5218 83.408C90.0018 83.12 90.5351 82.976 91.1218 82.976V85.872H90.3698C89.6871 85.872 89.1751 86.0213 88.8338 86.32C88.4924 86.608 88.3218 87.12 88.3218 87.856V92H85.5858V83.072H88.3218V84.56ZM96.4935 92.128C95.6188 92.128 94.8295 91.9413 94.1255 91.568C93.4322 91.1947 92.8828 90.6613 92.4775 89.968C92.0828 89.2747 91.8855 88.464 91.8855 87.536C91.8855 86.6187 92.0882 85.8133 92.4935 85.12C92.8988 84.416 93.4535 83.8773 94.1575 83.504C94.8615 83.1307 95.6508 82.944 96.5255 82.944C97.4002 82.944 98.1895 83.1307 98.8935 83.504C99.5975 83.8773 100.152 84.416 100.558 85.12C100.963 85.8133 101.166 86.6187 101.166 87.536C101.166 88.4533 100.958 89.264 100.542 89.968C100.136 90.6613 99.5762 91.1947 98.8615 91.568C98.1575 91.9413 97.3682 92.128 96.4935 92.128ZM96.4935 89.76C97.0162 89.76 97.4588 89.568 97.8215 89.184C98.1948 88.8 98.3815 88.2507 98.3815 87.536C98.3815 86.8213 98.2002 86.272 97.8375 85.888C97.4855 85.504 97.0482 85.312 96.5255 85.312C95.9922 85.312 95.5495 85.504 95.1975 85.888C94.8455 86.2613 94.6695 86.8107 94.6695 87.536C94.6695 88.2507 94.8402 88.8 95.1815 89.184C95.5335 89.568 95.9708 89.76 96.4935 89.76ZM103.977 82.144C103.497 82.144 103.102 82.0053 102.793 81.728C102.494 81.44 102.345 81.088 102.345 80.672C102.345 80.2453 102.494 79.8933 102.793 79.616C103.102 79.328 103.497 79.184 103.977 79.184C104.446 79.184 104.83 79.328 105.129 79.616C105.438 79.8933 105.593 80.2453 105.593 80.672C105.593 81.088 105.438 81.44 105.129 81.728C104.83 82.0053 104.446 82.144 103.977 82.144ZM105.353 93.152C105.353 94.2507 105.076 95.04 104.521 95.52C103.966 96.0107 103.193 96.256 102.201 96.256H101.129V93.936H101.785C102.084 93.936 102.297 93.8773 102.425 93.76C102.553 93.6427 102.617 93.4507 102.617 93.184V83.072H105.353V93.152ZM115.736 87.392C115.736 87.648 115.72 87.9147 115.688 88.192H109.496C109.539 88.7467 109.715 89.1733 110.024 89.472C110.344 89.76 110.733 89.904 111.192 89.904C111.875 89.904 112.349 89.616 112.616 89.04H115.528C115.379 89.6267 115.107 90.1547 114.712 90.624C114.328 91.0933 113.843 91.4613 113.256 91.728C112.669 91.9947 112.013 92.128 111.288 92.128C110.413 92.128 109.635 91.9413 108.952 91.568C108.269 91.1947 107.736 90.6613 107.352 89.968C106.968 89.2747 106.776 88.464 106.776 87.536C106.776 86.608 106.963 85.7973 107.336 85.104C107.72 84.4107 108.253 83.8773 108.936 83.504C109.619 83.1307 110.403 82.944 111.288 82.944C112.152 82.944 112.92 83.1253 113.592 83.488C114.264 83.8507 114.787 84.368 115.16 85.04C115.544 85.712 115.736 86.496 115.736 87.392ZM112.936 86.672C112.936 86.2027 112.776 85.8293 112.456 85.552C112.136 85.2747 111.736 85.136 111.256 85.136C110.797 85.136 110.408 85.2693 110.088 85.536C109.779 85.8027 109.587 86.1813 109.512 86.672H112.936ZM122.156 89.68V92H120.764C119.772 92 118.998 91.76 118.444 91.28C117.889 90.7893 117.612 89.9947 117.612 88.896V85.344H116.524V83.072H117.612V80.896H120.348V83.072H122.14V85.344H120.348V88.928C120.348 89.1947 120.412 89.3867 120.54 89.504C120.668 89.6213 120.881 89.68 121.18 89.68H122.156ZM127.744 92.128C126.869 92.128 126.08 91.9413 125.376 91.568C124.682 91.1947 124.133 90.6613 123.728 89.968C123.333 89.2747 123.136 88.464 123.136 87.536C123.136 86.6187 123.338 85.8133 123.743 85.12C124.149 84.416 124.704 83.8773 125.408 83.504C126.112 83.1307 126.901 82.944 127.776 82.944C128.65 82.944 129.44 83.1307 130.144 83.504C130.848 83.8773 131.402 84.416 131.808 85.12C132.213 85.8133 132.416 86.6187 132.416 87.536C132.416 88.4533 132.208 89.264 131.792 89.968C131.386 90.6613 130.826 91.1947 130.112 91.568C129.408 91.9413 128.618 92.128 127.744 92.128ZM127.744 89.76C128.266 89.76 128.709 89.568 129.072 89.184C129.445 88.8 129.632 88.2507 129.632 87.536C129.632 86.8213 129.45 86.272 129.088 85.888C128.736 85.504 128.298 85.312 127.776 85.312C127.242 85.312 126.8 85.504 126.448 85.888C126.096 86.2613 125.92 86.8107 125.92 87.536C125.92 88.2507 126.09 88.8 126.432 89.184C126.784 89.568 127.221 89.76 127.744 89.76Z" fill="white"/>
<path d="M4.93642 110.988H7.52142V112H3.68242V104.355H4.93642V110.988ZM11.1991 112.099C10.6271 112.099 10.1101 111.971 9.64812 111.714C9.18612 111.45 8.82312 111.083 8.55912 110.614C8.29512 110.137 8.16312 109.587 8.16312 108.964C8.16312 108.348 8.29878 107.802 8.57012 107.325C8.84145 106.848 9.21178 106.482 9.68112 106.225C10.1505 105.968 10.6748 105.84 11.2541 105.84C11.8335 105.84 12.3578 105.968 12.8271 106.225C13.2965 106.482 13.6668 106.848 13.9381 107.325C14.2095 107.802 14.3451 108.348 14.3451 108.964C14.3451 109.58 14.2058 110.126 13.9271 110.603C13.6485 111.08 13.2671 111.45 12.7831 111.714C12.3065 111.971 11.7785 112.099 11.1991 112.099ZM11.1991 111.01C11.5218 111.01 11.8225 110.933 12.1011 110.779C12.3871 110.625 12.6181 110.394 12.7941 110.086C12.9701 109.778 13.0581 109.404 13.0581 108.964C13.0581 108.524 12.9738 108.154 12.8051 107.853C12.6365 107.545 12.4128 107.314 12.1341 107.16C11.8555 107.006 11.5548 106.929 11.2321 106.929C10.9095 106.929 10.6088 107.006 10.3301 107.16C10.0588 107.314 9.84245 107.545 9.68112 107.853C9.51978 108.154 9.43912 108.524 9.43912 108.964C9.43912 109.617 9.60412 110.123 9.93412 110.482C10.2715 110.834 10.6931 111.01 11.1991 111.01ZM16.8388 106.819C17.0221 106.511 17.2641 106.273 17.5648 106.104C17.8728 105.928 18.2358 105.84 18.6538 105.84V107.138H18.3348C17.8434 107.138 17.4694 107.263 17.2128 107.512C16.9634 107.761 16.8388 108.194 16.8388 108.81V112H15.5848V105.939H16.8388V106.819ZM25.3614 108.821C25.3614 109.048 25.3468 109.254 25.3174 109.437H20.6864C20.7231 109.921 20.9028 110.31 21.2254 110.603C21.5481 110.896 21.9441 111.043 22.4134 111.043C23.0881 111.043 23.5648 110.761 23.8434 110.196H25.1964C25.0131 110.753 24.6794 111.212 24.1954 111.571C23.7188 111.923 23.1248 112.099 22.4134 112.099C21.8341 112.099 21.3134 111.971 20.8514 111.714C20.3968 111.45 20.0374 111.083 19.7734 110.614C19.5168 110.137 19.3884 109.587 19.3884 108.964C19.3884 108.341 19.5131 107.794 19.7624 107.325C20.0191 106.848 20.3748 106.482 20.8294 106.225C21.2914 105.968 21.8194 105.84 22.4134 105.84C22.9854 105.84 23.4951 105.965 23.9424 106.214C24.3898 106.463 24.7381 106.815 24.9874 107.27C25.2368 107.717 25.3614 108.234 25.3614 108.821ZM24.0524 108.425C24.0451 107.963 23.8801 107.593 23.5574 107.314C23.2348 107.035 22.8351 106.896 22.3584 106.896C21.9258 106.896 21.5554 107.035 21.2474 107.314C20.9394 107.585 20.7561 107.956 20.6974 108.425H24.0524ZM33.9325 105.84C34.4092 105.84 34.8345 105.939 35.2085 106.137C35.5898 106.335 35.8868 106.628 36.0995 107.017C36.3195 107.406 36.4295 107.875 36.4295 108.425V112H35.1865V108.612C35.1865 108.069 35.0508 107.655 34.7795 107.369C34.5082 107.076 34.1378 106.929 33.6685 106.929C33.1992 106.929 32.8252 107.076 32.5465 107.369C32.2752 107.655 32.1395 108.069 32.1395 108.612V112H30.8965V108.612C30.8965 108.069 30.7608 107.655 30.4895 107.369C30.2182 107.076 29.8478 106.929 29.3785 106.929C28.9092 106.929 28.5352 107.076 28.2565 107.369C27.9852 107.655 27.8495 108.069 27.8495 108.612V112H26.5955V105.939H27.8495V106.632C28.0548 106.383 28.3152 106.188 28.6305 106.049C28.9458 105.91 29.2832 105.84 29.6425 105.84C30.1265 105.84 30.5592 105.943 30.9405 106.148C31.3218 106.353 31.6152 106.65 31.8205 107.039C32.0038 106.672 32.2898 106.383 32.6785 106.17C33.0672 105.95 33.4852 105.84 33.9325 105.84ZM41.5206 105.136C41.2933 105.136 41.1026 105.059 40.9486 104.905C40.7946 104.751 40.7176 104.56 40.7176 104.333C40.7176 104.106 40.7946 103.915 40.9486 103.761C41.1026 103.607 41.2933 103.53 41.5206 103.53C41.7406 103.53 41.9276 103.607 42.0816 103.761C42.2356 103.915 42.3126 104.106 42.3126 104.333C42.3126 104.56 42.2356 104.751 42.0816 104.905C41.9276 105.059 41.7406 105.136 41.5206 105.136ZM42.1366 105.939V112H40.8826V105.939H42.1366ZM45.037 106.83C45.2497 106.551 45.5393 106.317 45.906 106.126C46.2727 105.935 46.687 105.84 47.149 105.84C47.677 105.84 48.1573 105.972 48.59 106.236C49.03 106.493 49.3747 106.856 49.624 107.325C49.8733 107.794 49.998 108.333 49.998 108.942C49.998 109.551 49.8733 110.097 49.624 110.581C49.3747 111.058 49.03 111.432 48.59 111.703C48.1573 111.967 47.677 112.099 47.149 112.099C46.687 112.099 46.2763 112.007 45.917 111.824C45.5577 111.633 45.2643 111.399 45.037 111.12V114.882H43.783V105.939H45.037V106.83ZM48.722 108.942C48.722 108.524 48.634 108.165 48.458 107.864C48.2893 107.556 48.062 107.325 47.776 107.171C47.4973 107.01 47.1967 106.929 46.874 106.929C46.5587 106.929 46.258 107.01 45.972 107.171C45.6933 107.332 45.466 107.567 45.29 107.875C45.1213 108.183 45.037 108.546 45.037 108.964C45.037 109.382 45.1213 109.749 45.29 110.064C45.466 110.372 45.6933 110.607 45.972 110.768C46.258 110.929 46.5587 111.01 46.874 111.01C47.1967 111.01 47.4973 110.929 47.776 110.768C48.062 110.599 48.2893 110.357 48.458 110.042C48.634 109.727 48.722 109.36 48.722 108.942ZM53.4381 112.099C52.9614 112.099 52.5324 112.015 52.1511 111.846C51.7771 111.67 51.4801 111.435 51.2601 111.142C51.0401 110.841 50.9228 110.508 50.9081 110.141H52.2061C52.2281 110.398 52.3491 110.614 52.5691 110.79C52.7964 110.959 53.0788 111.043 53.4161 111.043C53.7681 111.043 54.0394 110.977 54.2301 110.845C54.4281 110.706 54.5271 110.53 54.5271 110.317C54.5271 110.09 54.4171 109.921 54.1971 109.811C53.9844 109.701 53.6434 109.58 53.1741 109.448C52.7194 109.323 52.3491 109.202 52.0631 109.085C51.7771 108.968 51.5278 108.788 51.3151 108.546C51.1098 108.304 51.0071 107.985 51.0071 107.589C51.0071 107.266 51.1024 106.973 51.2931 106.709C51.4838 106.438 51.7551 106.225 52.1071 106.071C52.4664 105.917 52.8771 105.84 53.3391 105.84C54.0284 105.84 54.5821 106.016 55.0001 106.368C55.4254 106.713 55.6528 107.186 55.6821 107.787H54.4281C54.4061 107.516 54.2961 107.299 54.0981 107.138C53.9001 106.977 53.6324 106.896 53.2951 106.896C52.9651 106.896 52.7121 106.958 52.5361 107.083C52.3601 107.208 52.2721 107.373 52.2721 107.578C52.2721 107.739 52.3308 107.875 52.4481 107.985C52.5654 108.095 52.7084 108.183 52.8771 108.249C53.0458 108.308 53.2951 108.385 53.6251 108.48C54.0651 108.597 54.4244 108.718 54.7031 108.843C54.9891 108.96 55.2348 109.136 55.4401 109.371C55.6454 109.606 55.7518 109.917 55.7591 110.306C55.7591 110.651 55.6638 110.959 55.4731 111.23C55.2824 111.501 55.0111 111.714 54.6591 111.868C54.3144 112.022 53.9074 112.099 53.4381 112.099ZM62.6031 105.939V112H61.3491V111.285C61.1511 111.534 60.8907 111.732 60.5681 111.879C60.2527 112.018 59.9154 112.088 59.5561 112.088C59.0794 112.088 58.6504 111.989 58.2691 111.791C57.8951 111.593 57.5981 111.3 57.3781 110.911C57.1654 110.522 57.0591 110.053 57.0591 109.503V105.939H58.3021V109.316C58.3021 109.859 58.4377 110.277 58.7091 110.57C58.9804 110.856 59.3507 110.999 59.8201 110.999C60.2894 110.999 60.6597 110.856 60.9311 110.57C61.2097 110.277 61.3491 109.859 61.3491 109.316V105.939H62.6031ZM71.5946 105.84C72.0713 105.84 72.4966 105.939 72.8706 106.137C73.252 106.335 73.549 106.628 73.7616 107.017C73.9816 107.406 74.0916 107.875 74.0916 108.425V112H72.8486V108.612C72.8486 108.069 72.713 107.655 72.4416 107.369C72.1703 107.076 71.8 106.929 71.3306 106.929C70.8613 106.929 70.4873 107.076 70.2086 107.369C69.9373 107.655 69.8016 108.069 69.8016 108.612V112H68.5586V108.612C68.5586 108.069 68.423 107.655 68.1516 107.369C67.8803 107.076 67.51 106.929 67.0406 106.929C66.5713 106.929 66.1973 107.076 65.9186 107.369C65.6473 107.655 65.5116 108.069 65.5116 108.612V112H64.2576V105.939H65.5116V106.632C65.717 106.383 65.9773 106.188 66.2926 106.049C66.608 105.91 66.9453 105.84 67.3046 105.84C67.7886 105.84 68.2213 105.943 68.6026 106.148C68.984 106.353 69.2773 106.65 69.4826 107.039C69.666 106.672 69.952 106.383 70.3406 106.17C70.7293 105.95 71.1473 105.84 71.5946 105.84ZM82.6561 110.988H85.2411V112H81.4021V104.355H82.6561V110.988ZM88.9188 112.099C88.3468 112.099 87.8298 111.971 87.3678 111.714C86.9058 111.45 86.5428 111.083 86.2788 110.614C86.0148 110.137 85.8828 109.587 85.8828 108.964C85.8828 108.348 86.0185 107.802 86.2898 107.325C86.5612 106.848 86.9315 106.482 87.4008 106.225C87.8702 105.968 88.3945 105.84 88.9738 105.84C89.5532 105.84 90.0775 105.968 90.5468 106.225C91.0162 106.482 91.3865 106.848 91.6578 107.325C91.9292 107.802 92.0648 108.348 92.0648 108.964C92.0648 109.58 91.9255 110.126 91.6468 110.603C91.3682 111.08 90.9868 111.45 90.5028 111.714C90.0262 111.971 89.4982 112.099 88.9188 112.099ZM88.9188 111.01C89.2415 111.01 89.5422 110.933 89.8208 110.779C90.1068 110.625 90.3378 110.394 90.5138 110.086C90.6898 109.778 90.7778 109.404 90.7778 108.964C90.7778 108.524 90.6935 108.154 90.5248 107.853C90.3562 107.545 90.1325 107.314 89.8538 107.16C89.5752 107.006 89.2745 106.929 88.9518 106.929C88.6292 106.929 88.3285 107.006 88.0498 107.16C87.7785 107.314 87.5622 107.545 87.4008 107.853C87.2395 108.154 87.1588 108.524 87.1588 108.964C87.1588 109.617 87.3238 110.123 87.6538 110.482C87.9912 110.834 88.4128 111.01 88.9188 111.01ZM94.5585 106.819C94.7418 106.511 94.9838 106.273 95.2845 106.104C95.5925 105.928 95.9555 105.84 96.3735 105.84V107.138H96.0545C95.5632 107.138 95.1892 107.263 94.9325 107.512C94.6832 107.761 94.5585 108.194 94.5585 108.81V112H93.3045V105.939H94.5585V106.819ZM103.081 108.821C103.081 109.048 103.067 109.254 103.037 109.437H98.4062C98.4428 109.921 98.6225 110.31 98.9452 110.603C99.2678 110.896 99.6638 111.043 100.133 111.043C100.808 111.043 101.285 110.761 101.563 110.196H102.916C102.733 110.753 102.399 111.212 101.915 111.571C101.439 111.923 100.845 112.099 100.133 112.099C99.5538 112.099 99.0332 111.971 98.5712 111.714C98.1165 111.45 97.7572 111.083 97.4932 110.614C97.2365 110.137 97.1082 109.587 97.1082 108.964C97.1082 108.341 97.2328 107.794 97.4822 107.325C97.7388 106.848 98.0945 106.482 98.5492 106.225C99.0112 105.968 99.5392 105.84 100.133 105.84C100.705 105.84 101.215 105.965 101.662 106.214C102.11 106.463 102.458 106.815 102.707 107.27C102.957 107.717 103.081 108.234 103.081 108.821ZM101.772 108.425C101.765 107.963 101.6 107.593 101.277 107.314C100.955 107.035 100.555 106.896 100.078 106.896C99.6455 106.896 99.2752 107.035 98.9672 107.314C98.6592 107.585 98.4758 107.956 98.4172 108.425H101.772ZM111.652 105.84C112.129 105.84 112.554 105.939 112.928 106.137C113.31 106.335 113.607 106.628 113.819 107.017C114.039 107.406 114.149 107.875 114.149 108.425V112H112.906V108.612C112.906 108.069 112.771 107.655 112.499 107.369C112.228 107.076 111.858 106.929 111.388 106.929C110.919 106.929 110.545 107.076 110.266 107.369C109.995 107.655 109.859 108.069 109.859 108.612V112H108.616V108.612C108.616 108.069 108.481 107.655 108.209 107.369C107.938 107.076 107.568 106.929 107.098 106.929C106.629 106.929 106.255 107.076 105.976 107.369C105.705 107.655 105.569 108.069 105.569 108.612V112H104.315V105.939H105.569V106.632C105.775 106.383 106.035 106.188 106.35 106.049C106.666 105.91 107.003 105.84 107.362 105.84C107.846 105.84 108.279 105.943 108.66 106.148C109.042 106.353 109.335 106.65 109.54 107.039C109.724 106.672 110.01 106.383 110.398 106.17C110.787 105.95 111.205 105.84 111.652 105.84ZM119.24 105.136C119.013 105.136 118.822 105.059 118.668 104.905C118.514 104.751 118.437 104.56 118.437 104.333C118.437 104.106 118.514 103.915 118.668 103.761C118.822 103.607 119.013 103.53 119.24 103.53C119.46 103.53 119.647 103.607 119.801 103.761C119.955 103.915 120.032 104.106 120.032 104.333C120.032 104.56 119.955 104.751 119.801 104.905C119.647 105.059 119.46 105.136 119.24 105.136ZM119.856 105.939V112H118.602V105.939H119.856ZM122.757 106.83C122.969 106.551 123.259 106.317 123.626 106.126C123.992 105.935 124.407 105.84 124.869 105.84C125.397 105.84 125.877 105.972 126.31 106.236C126.75 106.493 127.094 106.856 127.344 107.325C127.593 107.794 127.718 108.333 127.718 108.942C127.718 109.551 127.593 110.097 127.344 110.581C127.094 111.058 126.75 111.432 126.31 111.703C125.877 111.967 125.397 112.099 124.869 112.099C124.407 112.099 123.996 112.007 123.637 111.824C123.277 111.633 122.984 111.399 122.757 111.12V114.882H121.503V105.939H122.757V106.83ZM126.442 108.942C126.442 108.524 126.354 108.165 126.178 107.864C126.009 107.556 125.782 107.325 125.496 107.171C125.217 107.01 124.916 106.929 124.594 106.929C124.278 106.929 123.978 107.01 123.692 107.171C123.413 107.332 123.186 107.567 123.01 107.875C122.841 108.183 122.757 108.546 122.757 108.964C122.757 109.382 122.841 109.749 123.01 110.064C123.186 110.372 123.413 110.607 123.692 110.768C123.978 110.929 124.278 111.01 124.594 111.01C124.916 111.01 125.217 110.929 125.496 110.768C125.782 110.599 126.009 110.357 126.178 110.042C126.354 109.727 126.442 109.36 126.442 108.942ZM131.158 112.099C130.681 112.099 130.252 112.015 129.871 111.846C129.497 111.67 129.2 111.435 128.98 111.142C128.76 110.841 128.642 110.508 128.628 110.141H129.926C129.948 110.398 130.069 110.614 130.289 110.79C130.516 110.959 130.798 111.043 131.136 111.043C131.488 111.043 131.759 110.977 131.95 110.845C132.148 110.706 132.247 110.53 132.247 110.317C132.247 110.09 132.137 109.921 131.917 109.811C131.704 109.701 131.363 109.58 130.894 109.448C130.439 109.323 130.069 109.202 129.783 109.085C129.497 108.968 129.247 108.788 129.035 108.546C128.829 108.304 128.727 107.985 128.727 107.589C128.727 107.266 128.822 106.973 129.013 106.709C129.203 106.438 129.475 106.225 129.827 106.071C130.186 105.917 130.597 105.84 131.059 105.84C131.748 105.84 132.302 106.016 132.72 106.368C133.145 106.713 133.372 107.186 133.402 107.787H132.148C132.126 107.516 132.016 107.299 131.818 107.138C131.62 106.977 131.352 106.896 131.015 106.896C130.685 106.896 130.432 106.958 130.256 107.083C130.08 107.208 129.992 107.373 129.992 107.578C129.992 107.739 130.05 107.875 130.168 107.985C130.285 108.095 130.428 108.183 130.597 108.249C130.765 108.308 131.015 108.385 131.345 108.48C131.785 108.597 132.144 108.718 132.423 108.843C132.709 108.96 132.954 109.136 133.16 109.371C133.365 109.606 133.471 109.917 133.479 110.306C133.479 110.651 133.383 110.959 133.193 111.23C133.002 111.501 132.731 111.714 132.379 111.868C132.034 112.022 131.627 112.099 131.158 112.099ZM140.323 105.939V112H139.069V111.285C138.871 111.534 138.61 111.732 138.288 111.879C137.972 112.018 137.635 112.088 137.276 112.088C136.799 112.088 136.37 111.989 135.989 111.791C135.615 111.593 135.318 111.3 135.098 110.911C134.885 110.522 134.779 110.053 134.779 109.503V105.939H136.022V109.316C136.022 109.859 136.157 110.277 136.429 110.57C136.7 110.856 137.07 110.999 137.54 110.999C138.009 110.999 138.379 110.856 138.651 110.57C138.929 110.277 139.069 109.859 139.069 109.316V105.939H140.323ZM149.314 105.84C149.791 105.84 150.216 105.939 150.59 106.137C150.972 106.335 151.269 106.628 151.481 107.017C151.701 107.406 151.811 107.875 151.811 108.425V112H150.568V108.612C150.568 108.069 150.433 107.655 150.161 107.369C149.89 107.076 149.52 106.929 149.05 106.929C148.581 106.929 148.207 107.076 147.928 107.369C147.657 107.655 147.521 108.069 147.521 108.612V112H146.278V108.612C146.278 108.069 146.143 107.655 145.871 107.369C145.6 107.076 145.23 106.929 144.76 106.929C144.291 106.929 143.917 107.076 143.638 107.369C143.367 107.655 143.231 108.069 143.231 108.612V112H141.977V105.939H143.231V106.632C143.437 106.383 143.697 106.188 144.012 106.049C144.328 105.91 144.665 105.84 145.024 105.84C145.508 105.84 145.941 105.943 146.322 106.148C146.704 106.353 146.997 106.65 147.202 107.039C147.386 106.672 147.672 106.383 148.06 106.17C148.449 105.95 148.867 105.84 149.314 105.84ZM160.376 110.988H162.961V112H159.122V104.355H160.376V110.988ZM166.639 112.099C166.067 112.099 165.55 111.971 165.088 111.714C164.626 111.45 164.263 111.083 163.999 110.614C163.735 110.137 163.603 109.587 163.603 108.964C163.603 108.348 163.738 107.802 164.01 107.325C164.281 106.848 164.651 106.482 165.121 106.225C165.59 105.968 166.114 105.84 166.694 105.84C167.273 105.84 167.797 105.968 168.267 106.225C168.736 106.482 169.106 106.848 169.378 107.325C169.649 107.802 169.785 108.348 169.785 108.964C169.785 109.58 169.645 110.126 169.367 110.603C169.088 111.08 168.707 111.45 168.223 111.714C167.746 111.971 167.218 112.099 166.639 112.099ZM166.639 111.01C166.961 111.01 167.262 110.933 167.541 110.779C167.827 110.625 168.058 110.394 168.234 110.086C168.41 109.778 168.498 109.404 168.498 108.964C168.498 108.524 168.413 108.154 168.245 107.853C168.076 107.545 167.852 107.314 167.574 107.16C167.295 107.006 166.994 106.929 166.672 106.929C166.349 106.929 166.048 107.006 165.77 107.16C165.498 107.314 165.282 107.545 165.121 107.853C164.959 108.154 164.879 108.524 164.879 108.964C164.879 109.617 165.044 110.123 165.374 110.482C165.711 110.834 166.133 111.01 166.639 111.01ZM172.278 106.819C172.462 106.511 172.704 106.273 173.004 106.104C173.312 105.928 173.675 105.84 174.093 105.84V107.138H173.774C173.283 107.138 172.909 107.263 172.652 107.512C172.403 107.761 172.278 108.194 172.278 108.81V112H171.024V105.939H172.278V106.819ZM180.801 108.821C180.801 109.048 180.786 109.254 180.757 109.437H176.126C176.163 109.921 176.342 110.31 176.665 110.603C176.988 110.896 177.384 111.043 177.853 111.043C178.528 111.043 179.004 110.761 179.283 110.196H180.636C180.453 110.753 180.119 111.212 179.635 111.571C179.158 111.923 178.564 112.099 177.853 112.099C177.274 112.099 176.753 111.971 176.291 111.714C175.836 111.45 175.477 111.083 175.213 110.614C174.956 110.137 174.828 109.587 174.828 108.964C174.828 108.341 174.953 107.794 175.202 107.325C175.459 106.848 175.814 106.482 176.269 106.225C176.731 105.968 177.259 105.84 177.853 105.84C178.425 105.84 178.935 105.965 179.382 106.214C179.829 106.463 180.178 106.815 180.427 107.27C180.676 107.717 180.801 108.234 180.801 108.821ZM179.492 108.425C179.485 107.963 179.32 107.593 178.997 107.314C178.674 107.035 178.275 106.896 177.798 106.896C177.365 106.896 176.995 107.035 176.687 107.314C176.379 107.585 176.196 107.956 176.137 108.425H179.492ZM189.372 105.84C189.849 105.84 190.274 105.939 190.648 106.137C191.029 106.335 191.326 106.628 191.539 107.017C191.759 107.406 191.869 107.875 191.869 108.425V112H190.626V108.612C190.626 108.069 190.49 107.655 190.219 107.369C189.948 107.076 189.577 106.929 189.108 106.929C188.639 106.929 188.265 107.076 187.986 107.369C187.715 107.655 187.579 108.069 187.579 108.612V112H186.336V108.612C186.336 108.069 186.2 107.655 185.929 107.369C185.658 107.076 185.287 106.929 184.818 106.929C184.349 106.929 183.975 107.076 183.696 107.369C183.425 107.655 183.289 108.069 183.289 108.612V112H182.035V105.939H183.289V106.632C183.494 106.383 183.755 106.188 184.07 106.049C184.385 105.91 184.723 105.84 185.082 105.84C185.566 105.84 185.999 105.943 186.38 106.148C186.761 106.353 187.055 106.65 187.26 107.039C187.443 106.672 187.729 106.383 188.118 106.17C188.507 105.95 188.925 105.84 189.372 105.84ZM196.96 105.136C196.733 105.136 196.542 105.059 196.388 104.905C196.234 104.751 196.157 104.56 196.157 104.333C196.157 104.106 196.234 103.915 196.388 103.761C196.542 103.607 196.733 103.53 196.96 103.53C197.18 103.53 197.367 103.607 197.521 103.761C197.675 103.915 197.752 104.106 197.752 104.333C197.752 104.56 197.675 104.751 197.521 104.905C197.367 105.059 197.18 105.136 196.96 105.136ZM197.576 105.939V112H196.322V105.939H197.576ZM200.476 106.83C200.689 106.551 200.979 106.317 201.345 106.126C201.712 105.935 202.126 105.84 202.588 105.84C203.116 105.84 203.597 105.972 204.029 106.236C204.469 106.493 204.814 106.856 205.063 107.325C205.313 107.794 205.437 108.333 205.437 108.942C205.437 109.551 205.313 110.097 205.063 110.581C204.814 111.058 204.469 111.432 204.029 111.703C203.597 111.967 203.116 112.099 202.588 112.099C202.126 112.099 201.716 112.007 201.356 111.824C200.997 111.633 200.704 111.399 200.476 111.12V114.882H199.222V105.939H200.476V106.83ZM204.161 108.942C204.161 108.524 204.073 108.165 203.897 107.864C203.729 107.556 203.501 107.325 203.215 107.171C202.937 107.01 202.636 106.929 202.313 106.929C201.998 106.929 201.697 107.01 201.411 107.171C201.133 107.332 200.905 107.567 200.729 107.875C200.561 108.183 200.476 108.546 200.476 108.964C200.476 109.382 200.561 109.749 200.729 110.064C200.905 110.372 201.133 110.607 201.411 110.768C201.697 110.929 201.998 111.01 202.313 111.01C202.636 111.01 202.937 110.929 203.215 110.768C203.501 110.599 203.729 110.357 203.897 110.042C204.073 109.727 204.161 109.36 204.161 108.942ZM208.878 112.099C208.401 112.099 207.972 112.015 207.591 111.846C207.217 111.67 206.92 111.435 206.7 111.142C206.48 110.841 206.362 110.508 206.348 110.141H207.646C207.668 110.398 207.789 110.614 208.009 110.79C208.236 110.959 208.518 111.043 208.856 111.043C209.208 111.043 209.479 110.977 209.67 110.845C209.868 110.706 209.967 110.53 209.967 110.317C209.967 110.09 209.857 109.921 209.637 109.811C209.424 109.701 209.083 109.58 208.614 109.448C208.159 109.323 207.789 109.202 207.503 109.085C207.217 108.968 206.967 108.788 206.755 108.546C206.549 108.304 206.447 107.985 206.447 107.589C206.447 107.266 206.542 106.973 206.733 106.709C206.923 106.438 207.195 106.225 207.547 106.071C207.906 105.917 208.317 105.84 208.779 105.84C209.468 105.84 210.022 106.016 210.44 106.368C210.865 106.713 211.092 107.186 211.122 107.787H209.868C209.846 107.516 209.736 107.299 209.538 107.138C209.34 106.977 209.072 106.896 208.735 106.896C208.405 106.896 208.152 106.958 207.976 107.083C207.8 107.208 207.712 107.373 207.712 107.578C207.712 107.739 207.77 107.875 207.888 107.985C208.005 108.095 208.148 108.183 208.317 108.249C208.485 108.308 208.735 108.385 209.065 108.48C209.505 108.597 209.864 108.718 210.143 108.843C210.429 108.96 210.674 109.136 210.88 109.371C211.085 109.606 211.191 109.917 211.199 110.306C211.199 110.651 211.103 110.959 210.913 111.23C210.722 111.501 210.451 111.714 210.099 111.868C209.754 112.022 209.347 112.099 208.878 112.099ZM218.043 105.939V112H216.789V111.285C216.591 111.534 216.33 111.732 216.008 111.879C215.692 112.018 215.355 112.088 214.996 112.088C214.519 112.088 214.09 111.989 213.709 111.791C213.335 111.593 213.038 111.3 212.818 110.911C212.605 110.522 212.499 110.053 212.499 109.503V105.939H213.742V109.316C213.742 109.859 213.877 110.277 214.149 110.57C214.42 110.856 214.79 110.999 215.26 110.999C215.729 110.999 216.099 110.856 216.371 110.57C216.649 110.277 216.789 109.859 216.789 109.316V105.939H218.043ZM227.034 105.84C227.511 105.84 227.936 105.939 228.31 106.137C228.691 106.335 228.988 106.628 229.201 107.017C229.421 107.406 229.531 107.875 229.531 108.425V112H228.288V108.612C228.288 108.069 228.152 107.655 227.881 107.369C227.61 107.076 227.239 106.929 226.77 106.929C226.301 106.929 225.927 107.076 225.648 107.369C225.377 107.655 225.241 108.069 225.241 108.612V112H223.998V108.612C223.998 108.069 223.862 107.655 223.591 107.369C223.32 107.076 222.949 106.929 222.48 106.929C222.011 106.929 221.637 107.076 221.358 107.369C221.087 107.655 220.951 108.069 220.951 108.612V112H219.697V105.939H220.951V106.632C221.156 106.383 221.417 106.188 221.732 106.049C222.047 105.91 222.385 105.84 222.744 105.84C223.228 105.84 223.661 105.943 224.042 106.148C224.423 106.353 224.717 106.65 224.922 107.039C225.105 106.672 225.391 106.383 225.78 106.17C226.169 105.95 226.587 105.84 227.034 105.84ZM238.096 110.988H240.681V112H236.842V104.355H238.096V110.988ZM244.358 112.099C243.786 112.099 243.269 111.971 242.807 111.714C242.345 111.45 241.982 111.083 241.718 110.614C241.454 110.137 241.322 109.587 241.322 108.964C241.322 108.348 241.458 107.802 241.729 107.325C242.001 106.848 242.371 106.482 242.84 106.225C243.31 105.968 243.834 105.84 244.413 105.84C244.993 105.84 245.517 105.968 245.986 106.225C246.456 106.482 246.826 106.848 247.097 107.325C247.369 107.802 247.504 108.348 247.504 108.964C247.504 109.58 247.365 110.126 247.086 110.603C246.808 111.08 246.426 111.45 245.942 111.714C245.466 111.971 244.938 112.099 244.358 112.099ZM244.358 111.01C244.681 111.01 244.982 110.933 245.26 110.779C245.546 110.625 245.777 110.394 245.953 110.086C246.129 109.778 246.217 109.404 246.217 108.964C246.217 108.524 246.133 108.154 245.964 107.853C245.796 107.545 245.572 107.314 245.293 107.16C245.015 107.006 244.714 106.929 244.391 106.929C244.069 106.929 243.768 107.006 243.489 107.16C243.218 107.314 243.002 107.545 242.84 107.853C242.679 108.154 242.598 108.524 242.598 108.964C242.598 109.617 242.763 110.123 243.093 110.482C243.431 110.834 243.852 111.01 244.358 111.01ZM249.998 106.819C250.181 106.511 250.423 106.273 250.724 106.104C251.032 105.928 251.395 105.84 251.813 105.84V107.138H251.494C251.003 107.138 250.629 107.263 250.372 107.512C250.123 107.761 249.998 108.194 249.998 108.81V112H248.744V105.939H249.998V106.819ZM258.521 108.821C258.521 109.048 258.506 109.254 258.477 109.437H253.846C253.882 109.921 254.062 110.31 254.385 110.603C254.707 110.896 255.103 111.043 255.573 111.043C256.247 111.043 256.724 110.761 257.003 110.196H258.356C258.172 110.753 257.839 111.212 257.355 111.571C256.878 111.923 256.284 112.099 255.573 112.099C254.993 112.099 254.473 111.971 254.011 111.714C253.556 111.45 253.197 111.083 252.933 110.614C252.676 110.137 252.548 109.587 252.548 108.964C252.548 108.341 252.672 107.794 252.922 107.325C253.178 106.848 253.534 106.482 253.989 106.225C254.451 105.968 254.979 105.84 255.573 105.84C256.145 105.84 256.654 105.965 257.102 106.214C257.549 106.463 257.897 106.815 258.147 107.27C258.396 107.717 258.521 108.234 258.521 108.821ZM257.212 108.425C257.204 107.963 257.039 107.593 256.717 107.314C256.394 107.035 255.994 106.896 255.518 106.896C255.085 106.896 254.715 107.035 254.407 107.314C254.099 107.585 253.915 107.956 253.857 108.425H257.212ZM267.092 105.84C267.568 105.84 267.994 105.939 268.368 106.137C268.749 106.335 269.046 106.628 269.259 107.017C269.479 107.406 269.589 107.875 269.589 108.425V112H268.346V108.612C268.346 108.069 268.21 107.655 267.939 107.369C267.667 107.076 267.297 106.929 266.828 106.929C266.358 106.929 265.984 107.076 265.706 107.369C265.434 107.655 265.299 108.069 265.299 108.612V112H264.056V108.612C264.056 108.069 263.92 107.655 263.649 107.369C263.377 107.076 263.007 106.929 262.538 106.929C262.068 106.929 261.694 107.076 261.416 107.369C261.144 107.655 261.009 108.069 261.009 108.612V112H259.755V105.939H261.009V106.632C261.214 106.383 261.474 106.188 261.79 106.049C262.105 105.91 262.442 105.84 262.802 105.84C263.286 105.84 263.718 105.943 264.1 106.148C264.481 106.353 264.774 106.65 264.98 107.039C265.163 106.672 265.449 106.383 265.838 106.17C266.226 105.95 266.644 105.84 267.092 105.84ZM274.68 105.136C274.452 105.136 274.262 105.059 274.108 104.905C273.954 104.751 273.877 104.56 273.877 104.333C273.877 104.106 273.954 103.915 274.108 103.761C274.262 103.607 274.452 103.53 274.68 103.53C274.9 103.53 275.087 103.607 275.241 103.761C275.395 103.915 275.472 104.106 275.472 104.333C275.472 104.56 275.395 104.751 275.241 104.905C275.087 105.059 274.9 105.136 274.68 105.136ZM275.296 105.939V112H274.042V105.939H275.296ZM278.196 106.83C278.409 106.551 278.699 106.317 279.065 106.126C279.432 105.935 279.846 105.84 280.308 105.84C280.836 105.84 281.317 105.972 281.749 106.236C282.189 106.493 282.534 106.856 282.783 107.325C283.033 107.794 283.157 108.333 283.157 108.942C283.157 109.551 283.033 110.097 282.783 110.581C282.534 111.058 282.189 111.432 281.749 111.703C281.317 111.967 280.836 112.099 280.308 112.099C279.846 112.099 279.436 112.007 279.076 111.824C278.717 111.633 278.424 111.399 278.196 111.12V114.882H276.942V105.939H278.196V106.83ZM281.881 108.942C281.881 108.524 281.793 108.165 281.617 107.864C281.449 107.556 281.221 107.325 280.935 107.171C280.657 107.01 280.356 106.929 280.033 106.929C279.718 106.929 279.417 107.01 279.131 107.171C278.853 107.332 278.625 107.567 278.449 107.875C278.281 108.183 278.196 108.546 278.196 108.964C278.196 109.382 278.281 109.749 278.449 110.064C278.625 110.372 278.853 110.607 279.131 110.768C279.417 110.929 279.718 111.01 280.033 111.01C280.356 111.01 280.657 110.929 280.935 110.768C281.221 110.599 281.449 110.357 281.617 110.042C281.793 109.727 281.881 109.36 281.881 108.942ZM286.597 112.099C286.121 112.099 285.692 112.015 285.31 111.846C284.936 111.67 284.639 111.435 284.419 111.142C284.199 110.841 284.082 110.508 284.067 110.141H285.365C285.387 110.398 285.508 110.614 285.728 110.79C285.956 110.959 286.238 111.043 286.575 111.043C286.927 111.043 287.199 110.977 287.389 110.845C287.587 110.706 287.686 110.53 287.686 110.317C287.686 110.09 287.576 109.921 287.356 109.811C287.144 109.701 286.803 109.58 286.333 109.448C285.879 109.323 285.508 109.202 285.222 109.085C284.936 108.968 284.687 108.788 284.474 108.546C284.269 108.304 284.166 107.985 284.166 107.589C284.166 107.266 284.262 106.973 284.452 106.709C284.643 106.438 284.914 106.225 285.266 106.071C285.626 105.917 286.036 105.84 286.498 105.84C287.188 105.84 287.741 106.016 288.159 106.368C288.585 106.713 288.812 107.186 288.841 107.787H287.587C287.565 107.516 287.455 107.299 287.257 107.138C287.059 106.977 286.792 106.896 286.454 106.896C286.124 106.896 285.871 106.958 285.695 107.083C285.519 107.208 285.431 107.373 285.431 107.578C285.431 107.739 285.49 107.875 285.607 107.985C285.725 108.095 285.868 108.183 286.036 108.249C286.205 108.308 286.454 108.385 286.784 108.48C287.224 108.597 287.584 108.718 287.862 108.843C288.148 108.96 288.394 109.136 288.599 109.371C288.805 109.606 288.911 109.917 288.918 110.306C288.918 110.651 288.823 110.959 288.632 111.23C288.442 111.501 288.17 111.714 287.818 111.868C287.474 112.022 287.067 112.099 286.597 112.099ZM295.762 105.939V112H294.508V111.285C294.31 111.534 294.05 111.732 293.727 111.879C293.412 112.018 293.075 112.088 292.715 112.088C292.239 112.088 291.81 111.989 291.428 111.791C291.054 111.593 290.757 111.3 290.537 110.911C290.325 110.522 290.218 110.053 290.218 109.503V105.939H291.461V109.316C291.461 109.859 291.597 110.277 291.868 110.57C292.14 110.856 292.51 110.999 292.979 110.999C293.449 110.999 293.819 110.856 294.09 110.57C294.369 110.277 294.508 109.859 294.508 109.316V105.939H295.762ZM304.754 105.84C305.23 105.84 305.656 105.939 306.03 106.137C306.411 106.335 306.708 106.628 306.921 107.017C307.141 107.406 307.251 107.875 307.251 108.425V112H306.008V108.612C306.008 108.069 305.872 107.655 305.601 107.369C305.329 107.076 304.959 106.929 304.49 106.929C304.02 106.929 303.646 107.076 303.368 107.369C303.096 107.655 302.961 108.069 302.961 108.612V112H301.718V108.612C301.718 108.069 301.582 107.655 301.311 107.369C301.039 107.076 300.669 106.929 300.2 106.929C299.73 106.929 299.356 107.076 299.078 107.369C298.806 107.655 298.671 108.069 298.671 108.612V112H297.417V105.939H298.671V106.632C298.876 106.383 299.136 106.188 299.452 106.049C299.767 105.91 300.104 105.84 300.464 105.84C300.948 105.84 301.38 105.943 301.762 106.148C302.143 106.353 302.436 106.65 302.642 107.039C302.825 106.672 303.111 106.383 303.5 106.17C303.888 105.95 304.306 105.84 304.754 105.84ZM315.815 110.988H318.4V112H314.561V104.355H315.815V110.988ZM322.078 112.099C321.506 112.099 320.989 111.971 320.527 111.714C320.065 111.45 319.702 111.083 319.438 110.614C319.174 110.137 319.042 109.587 319.042 108.964C319.042 108.348 319.178 107.802 319.449 107.325C319.72 106.848 320.091 106.482 320.56 106.225C321.029 105.968 321.554 105.84 322.133 105.84C322.712 105.84 323.237 105.968 323.706 106.225C324.175 106.482 324.546 106.848 324.817 107.325C325.088 107.802 325.224 108.348 325.224 108.964C325.224 109.58 325.085 110.126 324.806 110.603C324.527 111.08 324.146 111.45 323.662 111.714C323.185 111.971 322.657 112.099 322.078 112.099ZM322.078 111.01C322.401 111.01 322.701 110.933 322.98 110.779C323.266 110.625 323.497 110.394 323.673 110.086C323.849 109.778 323.937 109.404 323.937 108.964C323.937 108.524 323.853 108.154 323.684 107.853C323.515 107.545 323.292 107.314 323.013 107.16C322.734 107.006 322.434 106.929 322.111 106.929C321.788 106.929 321.488 107.006 321.209 107.16C320.938 107.314 320.721 107.545 320.56 107.853C320.399 108.154 320.318 108.524 320.318 108.964C320.318 109.617 320.483 110.123 320.813 110.482C321.15 110.834 321.572 111.01 322.078 111.01ZM327.718 106.819C327.901 106.511 328.143 106.273 328.444 106.104C328.752 105.928 329.115 105.84 329.533 105.84V107.138H329.214C328.722 107.138 328.348 107.263 328.092 107.512C327.842 107.761 327.718 108.194 327.718 108.81V112H326.464V105.939H327.718V106.819ZM336.24 108.821C336.24 109.048 336.226 109.254 336.196 109.437H331.565C331.602 109.921 331.782 110.31 332.104 110.603C332.427 110.896 332.823 111.043 333.292 111.043C333.967 111.043 334.444 110.761 334.722 110.196H336.075C335.892 110.753 335.558 111.212 335.074 111.571C334.598 111.923 334.004 112.099 333.292 112.099C332.713 112.099 332.192 111.971 331.73 111.714C331.276 111.45 330.916 111.083 330.652 110.614C330.396 110.137 330.267 109.587 330.267 108.964C330.267 108.341 330.392 107.794 330.641 107.325C330.898 106.848 331.254 106.482 331.708 106.225C332.17 105.968 332.698 105.84 333.292 105.84C333.864 105.84 334.374 105.965 334.821 106.214C335.269 106.463 335.617 106.815 335.866 107.27C336.116 107.717 336.24 108.234 336.24 108.821ZM334.931 108.425C334.924 107.963 334.759 107.593 334.436 107.314C334.114 107.035 333.714 106.896 333.237 106.896C332.805 106.896 332.434 107.035 332.126 107.314C331.818 107.585 331.635 107.956 331.576 108.425H334.931ZM344.811 105.84C345.288 105.84 345.713 105.939 346.087 106.137C346.469 106.335 346.766 106.628 346.978 107.017C347.198 107.406 347.308 107.875 347.308 108.425V112H346.065V108.612C346.065 108.069 345.93 107.655 345.658 107.369C345.387 107.076 345.017 106.929 344.547 106.929C344.078 106.929 343.704 107.076 343.425 107.369C343.154 107.655 343.018 108.069 343.018 108.612V112H341.775V108.612C341.775 108.069 341.64 107.655 341.368 107.369C341.097 107.076 340.727 106.929 340.257 106.929C339.788 106.929 339.414 107.076 339.135 107.369C338.864 107.655 338.728 108.069 338.728 108.612V112H337.474V105.939H338.728V106.632C338.934 106.383 339.194 106.188 339.509 106.049C339.825 105.91 340.162 105.84 340.521 105.84C341.005 105.84 341.438 105.943 341.819 106.148C342.201 106.353 342.494 106.65 342.699 107.039C342.883 106.672 343.169 106.383 343.557 106.17C343.946 105.95 344.364 105.84 344.811 105.84ZM1.463 122.136C1.23567 122.136 1.045 122.059 0.891 121.905C0.737 121.751 0.66 121.56 0.66 121.333C0.66 121.106 0.737 120.915 0.891 120.761C1.045 120.607 1.23567 120.53 1.463 120.53C1.683 120.53 1.87 120.607 2.024 120.761C2.178 120.915 2.255 121.106 2.255 121.333C2.255 121.56 2.178 121.751 2.024 121.905C1.87 122.059 1.683 122.136 1.463 122.136ZM2.079 122.939V129H0.825V122.939H2.079ZM4.97939 123.83C5.19206 123.551 5.48172 123.317 5.84839 123.126C6.21506 122.935 6.62939 122.84 7.09139 122.84C7.61939 122.84 8.09972 122.972 8.53239 123.236C8.97239 123.493 9.31706 123.856 9.56639 124.325C9.81572 124.794 9.94039 125.333 9.94039 125.942C9.94039 126.551 9.81572 127.097 9.56639 127.581C9.31706 128.058 8.97239 128.432 8.53239 128.703C8.09972 128.967 7.61939 129.099 7.09139 129.099C6.62939 129.099 6.21872 129.007 5.85939 128.824C5.50006 128.633 5.20672 128.399 4.97939 128.12V131.882H3.72539V122.939H4.97939V123.83ZM8.66439 125.942C8.66439 125.524 8.57639 125.165 8.40039 124.864C8.23172 124.556 8.00439 124.325 7.71839 124.171C7.43972 124.01 7.13906 123.929 6.81639 123.929C6.50106 123.929 6.20039 124.01 5.91439 124.171C5.63572 124.332 5.40839 124.567 5.23239 124.875C5.06372 125.183 4.97939 125.546 4.97939 125.964C4.97939 126.382 5.06372 126.749 5.23239 127.064C5.40839 127.372 5.63572 127.607 5.91439 127.768C6.20039 127.929 6.50106 128.01 6.81639 128.01C7.13906 128.01 7.43972 127.929 7.71839 127.768C8.00439 127.599 8.23172 127.357 8.40039 127.042C8.57639 126.727 8.66439 126.36 8.66439 125.942ZM13.3805 129.099C12.9038 129.099 12.4748 129.015 12.0935 128.846C11.7195 128.67 11.4225 128.435 11.2025 128.142C10.9825 127.841 10.8651 127.508 10.8505 127.141H12.1485C12.1705 127.398 12.2915 127.614 12.5115 127.79C12.7388 127.959 13.0211 128.043 13.3585 128.043C13.7105 128.043 13.9818 127.977 14.1725 127.845C14.3705 127.706 14.4695 127.53 14.4695 127.317C14.4695 127.09 14.3595 126.921 14.1395 126.811C13.9268 126.701 13.5858 126.58 13.1165 126.448C12.6618 126.323 12.2915 126.202 12.0055 126.085C11.7195 125.968 11.4701 125.788 11.2575 125.546C11.0521 125.304 10.9495 124.985 10.9495 124.589C10.9495 124.266 11.0448 123.973 11.2355 123.709C11.4261 123.438 11.6975 123.225 12.0495 123.071C12.4088 122.917 12.8195 122.84 13.2815 122.84C13.9708 122.84 14.5245 123.016 14.9425 123.368C15.3678 123.713 15.5951 124.186 15.6245 124.787H14.3705C14.3485 124.516 14.2385 124.299 14.0405 124.138C13.8425 123.977 13.5748 123.896 13.2375 123.896C12.9075 123.896 12.6545 123.958 12.4785 124.083C12.3025 124.208 12.2145 124.373 12.2145 124.578C12.2145 124.739 12.2731 124.875 12.3905 124.985C12.5078 125.095 12.6508 125.183 12.8195 125.249C12.9881 125.308 13.2375 125.385 13.5675 125.48C14.0075 125.597 14.3668 125.718 14.6455 125.843C14.9315 125.96 15.1771 126.136 15.3825 126.371C15.5878 126.606 15.6941 126.917 15.7015 127.306C15.7015 127.651 15.6061 127.959 15.4155 128.23C15.2248 128.501 14.9535 128.714 14.6015 128.868C14.2568 129.022 13.8498 129.099 13.3805 129.099ZM22.5454 122.939V129H21.2914V128.285C21.0934 128.534 20.8331 128.732 20.5104 128.879C20.1951 129.018 19.8578 129.088 19.4984 129.088C19.0218 129.088 18.5928 128.989 18.2114 128.791C17.8374 128.593 17.5404 128.3 17.3204 127.911C17.1078 127.522 17.0014 127.053 17.0014 126.503V122.939H18.2444V126.316C18.2444 126.859 18.3801 127.277 18.6514 127.57C18.9228 127.856 19.2931 127.999 19.7624 127.999C20.2318 127.999 20.6021 127.856 20.8734 127.57C21.1521 127.277 21.2914 126.859 21.2914 126.316V122.939H22.5454ZM31.537 122.84C32.0137 122.84 32.439 122.939 32.813 123.137C33.1943 123.335 33.4913 123.628 33.704 124.017C33.924 124.406 34.034 124.875 34.034 125.425V129H32.791V125.612C32.791 125.069 32.6553 124.655 32.384 124.369C32.1127 124.076 31.7423 123.929 31.273 123.929C30.8037 123.929 30.4297 124.076 30.151 124.369C29.8797 124.655 29.744 125.069 29.744 125.612V129H28.501V125.612C28.501 125.069 28.3653 124.655 28.094 124.369C27.8227 124.076 27.4523 123.929 26.983 123.929C26.5137 123.929 26.1397 124.076 25.861 124.369C25.5897 124.655 25.454 125.069 25.454 125.612V129H24.2V122.939H25.454V123.632C25.6593 123.383 25.9197 123.188 26.235 123.049C26.5503 122.91 26.8877 122.84 27.247 122.84C27.731 122.84 28.1637 122.943 28.545 123.148C28.9263 123.353 29.2197 123.65 29.425 124.039C29.6083 123.672 29.8943 123.383 30.283 123.17C30.6717 122.95 31.0897 122.84 31.537 122.84Z" fill="white"/>
<defs>
<linearGradient id="paint0_linear_15_9" x1="0" y1="0" x2="107.405" y2="54.7749" gradientUnits="userSpaceOnUse">
<stop offset="0.5" stop-color="#1A237E" stop-opacity="0.976471"/>
<stop offset="1" stop-color="#303F9F"/>
</linearGradient>
</defs>
</svg>
