<svg width="376" height="58" viewBox="0 0 376 58" fill="none" xmlns="http://www.w3.org/2000/svg">
<path d="M29.68 28.8L19.96 57H9.92L0.16 28.8H8.56L14.96 49.16L21.32 28.8H29.68ZM30.8428 45.76C30.8428 43.44 31.2561 41.4133 32.0828 39.68C32.9361 37.9467 34.0828 36.6133 35.5228 35.68C36.9895 34.7467 38.6161 34.28 40.4028 34.28C41.9495 34.28 43.2828 34.5867 44.4028 35.2C45.5228 35.8133 46.3895 36.64 47.0028 37.68V34.56H54.8428V57H47.0028V53.88C46.3895 54.92 45.5095 55.7467 44.3628 56.36C43.2428 56.9733 41.9228 57.28 40.4028 57.28C38.6161 57.28 36.9895 56.8133 35.5228 55.88C34.0828 54.9467 32.9361 53.6133 32.0828 51.88C31.2561 50.12 30.8428 48.08 30.8428 45.76ZM47.0028 45.76C47.0028 44.32 46.6028 43.1867 45.8028 42.36C45.0295 41.5333 44.0695 41.12 42.9228 41.12C41.7495 41.12 40.7761 41.5333 40.0028 42.36C39.2295 43.16 38.8428 44.2933 38.8428 45.76C38.8428 47.2 39.2295 48.3467 40.0028 49.2C40.7761 50.0267 41.7495 50.44 42.9228 50.44C44.0695 50.44 45.0295 50.0267 45.8028 49.2C46.6028 48.3733 47.0028 47.2267 47.0028 45.76ZM88.6303 34.36C91.457 34.36 93.6703 35.2133 95.2703 36.92C96.897 38.6267 97.7103 40.96 97.7103 43.92V57H89.8703V44.96C89.8703 43.76 89.537 42.8267 88.8703 42.16C88.2036 41.4933 87.297 41.16 86.1503 41.16C85.0036 41.16 84.097 41.4933 83.4303 42.16C82.7636 42.8267 82.4303 43.76 82.4303 44.96V57H74.5903V44.96C74.5903 43.76 74.257 42.8267 73.5903 42.16C72.9503 41.4933 72.057 41.16 70.9103 41.16C69.737 41.16 68.817 41.4933 68.1503 42.16C67.4836 42.8267 67.1503 43.76 67.1503 44.96V57H59.3103V34.56H67.1503V37.52C67.8436 36.56 68.737 35.8 69.8303 35.24C70.9503 34.6533 72.2303 34.36 73.6703 34.36C75.3236 34.36 76.7903 34.72 78.0703 35.44C79.377 36.16 80.4036 37.1733 81.1503 38.48C81.9503 37.2533 83.0036 36.2667 84.3103 35.52C85.617 34.7467 87.057 34.36 88.6303 34.36ZM112.446 57.28C110.206 57.28 108.192 56.8133 106.406 55.88C104.646 54.9467 103.259 53.6133 102.246 51.88C101.232 50.1467 100.726 48.1067 100.726 45.76C100.726 43.44 101.232 41.4133 102.246 39.68C103.286 37.9467 104.686 36.6133 106.446 35.68C108.232 34.7467 110.246 34.28 112.486 34.28C114.726 34.28 116.726 34.7467 118.486 35.68C120.272 36.6133 121.672 37.9467 122.686 39.68C123.726 41.4133 124.246 43.44 124.246 45.76C124.246 48.08 123.726 50.12 122.686 51.88C121.672 53.6133 120.272 54.9467 118.486 55.88C116.699 56.8133 114.686 57.28 112.446 57.28ZM112.446 50.48C113.539 50.48 114.446 50.08 115.166 49.28C115.912 48.4533 116.286 47.28 116.286 45.76C116.286 44.24 115.912 43.08 115.166 42.28C114.446 41.48 113.552 41.08 112.486 41.08C111.419 41.08 110.526 41.48 109.806 42.28C109.086 43.08 108.726 44.24 108.726 45.76C108.726 47.3067 109.072 48.48 109.766 49.28C110.459 50.08 111.352 50.48 112.446 50.48ZM136.995 57.28C134.969 57.28 133.155 56.9467 131.555 56.28C129.982 55.5867 128.729 54.6533 127.795 53.48C126.889 52.28 126.382 50.9333 126.275 49.44H133.875C133.982 50.16 134.315 50.72 134.875 51.12C135.435 51.52 136.129 51.72 136.955 51.72C137.595 51.72 138.102 51.5867 138.475 51.32C138.849 51.0533 139.035 50.7067 139.035 50.28C139.035 49.72 138.729 49.3067 138.115 49.04C137.502 48.7733 136.489 48.48 135.075 48.16C133.475 47.84 132.142 47.48 131.075 47.08C130.009 46.68 129.075 46.0267 128.275 45.12C127.502 44.2133 127.115 42.9867 127.115 41.44C127.115 40.1067 127.475 38.9067 128.195 37.84C128.915 36.7467 129.969 35.88 131.355 35.24C132.769 34.6 134.462 34.28 136.435 34.28C139.369 34.28 141.675 35 143.355 36.44C145.035 37.88 146.009 39.7733 146.275 42.12H139.195C139.062 41.4 138.742 40.8533 138.235 40.48C137.755 40.08 137.102 39.88 136.275 39.88C135.635 39.88 135.142 40 134.795 40.24C134.475 40.48 134.315 40.8133 134.315 41.24C134.315 41.7733 134.622 42.1867 135.235 42.48C135.849 42.7467 136.835 43.0267 138.195 43.32C139.822 43.6667 141.169 44.0533 142.235 44.48C143.329 44.9067 144.275 45.6 145.075 46.56C145.902 47.4933 146.315 48.7733 146.315 50.4C146.315 51.7067 145.929 52.88 145.155 53.92C144.409 54.96 143.329 55.7867 141.915 56.4C140.529 56.9867 138.889 57.28 136.995 57.28ZM156.866 42.84C156.866 40.0667 157.439 37.6 158.586 35.44C159.759 33.2533 161.413 31.56 163.546 30.36C165.679 29.1333 168.133 28.52 170.906 28.52C174.426 28.52 177.386 29.4667 179.786 31.36C182.186 33.2267 183.733 35.7733 184.426 39H175.986C175.479 37.9333 174.773 37.12 173.866 36.56C172.986 36 171.959 35.72 170.786 35.72C168.973 35.72 167.519 36.3733 166.426 37.68C165.359 38.96 164.826 40.68 164.826 42.84C164.826 45.0267 165.359 46.7733 166.426 48.08C167.519 49.36 168.973 50 170.786 50C171.959 50 172.986 49.72 173.866 49.16C174.773 48.6 175.479 47.7867 175.986 46.72H184.426C183.733 49.9467 182.186 52.5067 179.786 54.4C177.386 56.2667 174.426 57.2 170.906 57.2C168.133 57.2 165.679 56.6 163.546 55.4C161.413 54.1733 159.759 52.48 158.586 50.32C157.439 48.1333 156.866 45.64 156.866 42.84ZM198.578 57.28C196.338 57.28 194.325 56.8133 192.538 55.88C190.778 54.9467 189.392 53.6133 188.378 51.88C187.365 50.1467 186.858 48.1067 186.858 45.76C186.858 43.44 187.365 41.4133 188.378 39.68C189.418 37.9467 190.818 36.6133 192.578 35.68C194.365 34.7467 196.378 34.28 198.618 34.28C200.858 34.28 202.858 34.7467 204.618 35.68C206.405 36.6133 207.805 37.9467 208.818 39.68C209.858 41.4133 210.378 43.44 210.378 45.76C210.378 48.08 209.858 50.12 208.818 51.88C207.805 53.6133 206.405 54.9467 204.618 55.88C202.832 56.8133 200.818 57.28 198.578 57.28ZM198.578 50.48C199.672 50.48 200.578 50.08 201.298 49.28C202.045 48.4533 202.418 47.28 202.418 45.76C202.418 44.24 202.045 43.08 201.298 42.28C200.578 41.48 199.685 41.08 198.618 41.08C197.552 41.08 196.658 41.48 195.938 42.28C195.218 43.08 194.858 44.24 194.858 45.76C194.858 47.3067 195.205 48.48 195.898 49.28C196.592 50.08 197.485 50.48 198.578 50.48ZM228.248 34.36C230.835 34.36 232.888 35.2267 234.408 36.96C235.928 38.6667 236.688 40.9867 236.688 43.92V57H228.848V44.96C228.848 43.68 228.515 42.68 227.848 41.96C227.181 41.2133 226.288 40.84 225.168 40.84C223.995 40.84 223.075 41.2133 222.408 41.96C221.741 42.68 221.408 43.68 221.408 44.96V57H213.568V34.56H221.408V37.76C222.101 36.7467 223.035 35.9333 224.208 35.32C225.381 34.68 226.728 34.36 228.248 34.36ZM251.75 49.6L255.95 34.56H264.31L256.59 57H246.83L239.11 34.56H247.47L251.75 49.6ZM288.407 45.52C288.407 46.1333 288.367 46.7467 288.287 47.36H273.447C273.527 48.5867 273.86 49.5067 274.447 50.12C275.06 50.7067 275.833 51 276.767 51C278.073 51 279.007 50.4133 279.567 49.24H287.927C287.58 50.7867 286.9 52.1733 285.887 53.4C284.9 54.6 283.647 55.5467 282.127 56.24C280.607 56.9333 278.927 57.28 277.087 57.28C274.873 57.28 272.9 56.8133 271.167 55.88C269.46 54.9467 268.113 53.6133 267.127 51.88C266.167 50.1467 265.687 48.1067 265.687 45.76C265.687 43.4133 266.167 41.3867 267.127 39.68C268.087 37.9467 269.42 36.6133 271.127 35.68C272.86 34.7467 274.847 34.28 277.087 34.28C279.3 34.28 281.26 34.7333 282.967 35.64C284.673 36.5467 286.007 37.8533 286.967 39.56C287.927 41.24 288.407 43.2267 288.407 45.52ZM280.407 43.56C280.407 42.6 280.087 41.8533 279.447 41.32C278.807 40.76 278.007 40.48 277.047 40.48C276.087 40.48 275.3 40.7467 274.687 41.28C274.073 41.7867 273.673 42.5467 273.487 43.56H280.407ZM299.455 38.52C300.335 37.24 301.402 36.2267 302.655 35.48C303.908 34.7333 305.255 34.36 306.695 34.36V42.72H304.495C302.788 42.72 301.522 43.0533 300.695 43.72C299.868 44.3867 299.455 45.5467 299.455 47.2V57H291.615V34.56H299.455V38.52ZM319.066 57.28C317.039 57.28 315.226 56.9467 313.626 56.28C312.052 55.5867 310.799 54.6533 309.866 53.48C308.959 52.28 308.452 50.9333 308.346 49.44H315.946C316.052 50.16 316.386 50.72 316.946 51.12C317.506 51.52 318.199 51.72 319.026 51.72C319.666 51.72 320.172 51.5867 320.546 51.32C320.919 51.0533 321.106 50.7067 321.106 50.28C321.106 49.72 320.799 49.3067 320.186 49.04C319.572 48.7733 318.559 48.48 317.146 48.16C315.546 47.84 314.212 47.48 313.146 47.08C312.079 46.68 311.146 46.0267 310.346 45.12C309.572 44.2133 309.186 42.9867 309.186 41.44C309.186 40.1067 309.546 38.9067 310.266 37.84C310.986 36.7467 312.039 35.88 313.426 35.24C314.839 34.6 316.532 34.28 318.506 34.28C321.439 34.28 323.746 35 325.426 36.44C327.106 37.88 328.079 39.7733 328.346 42.12H321.266C321.132 41.4 320.812 40.8533 320.306 40.48C319.826 40.08 319.172 39.88 318.346 39.88C317.706 39.88 317.212 40 316.866 40.24C316.546 40.48 316.386 40.8133 316.386 41.24C316.386 41.7733 316.692 42.1867 317.306 42.48C317.919 42.7467 318.906 43.0267 320.266 43.32C321.892 43.6667 323.239 44.0533 324.306 44.48C325.399 44.9067 326.346 45.6 327.146 46.56C327.972 47.4933 328.386 48.7733 328.386 50.4C328.386 51.7067 327.999 52.88 327.226 53.92C326.479 54.96 325.399 55.7867 323.986 56.4C322.599 56.9867 320.959 57.28 319.066 57.28ZM330.96 45.76C330.96 43.44 331.373 41.4133 332.2 39.68C333.053 37.9467 334.2 36.6133 335.64 35.68C337.107 34.7467 338.733 34.28 340.52 34.28C342.067 34.28 343.4 34.5867 344.52 35.2C345.64 35.8133 346.507 36.64 347.12 37.68V34.56H354.96V57H347.12V53.88C346.507 54.92 345.627 55.7467 344.48 56.36C343.36 56.9733 342.04 57.28 340.52 57.28C338.733 57.28 337.107 56.8133 335.64 55.88C334.2 54.9467 333.053 53.6133 332.2 51.88C331.373 50.12 330.96 48.08 330.96 45.76ZM347.12 45.76C347.12 44.32 346.72 43.1867 345.92 42.36C345.147 41.5333 344.187 41.12 343.04 41.12C341.867 41.12 340.893 41.5333 340.12 42.36C339.347 43.16 338.96 44.2933 338.96 45.76C338.96 47.2 339.347 48.3467 340.12 49.2C340.893 50.0267 341.867 50.44 343.04 50.44C344.187 50.44 345.147 50.0267 345.92 49.2C346.72 48.3733 347.12 47.2267 347.12 45.76ZM367.268 38.52C368.148 37.24 369.214 36.2267 370.468 35.48C371.721 34.7333 373.068 34.36 374.508 34.36V42.72H372.308C370.601 42.72 369.334 43.0533 368.508 43.72C367.681 44.3867 367.268 45.5467 367.268 47.2V57H359.428V34.56H367.268V38.52Z" fill="white"/>
<path d="M62.2 7.768C63.384 7.768 64.4187 8.00267 65.304 8.472C66.1893 8.94133 66.872 9.60267 67.352 10.456C67.8427 11.2987 68.088 12.2747 68.088 13.384C68.088 14.4827 67.8427 15.4587 67.352 16.312C66.872 17.1653 66.184 17.8267 65.288 18.296C64.4027 18.7653 63.3733 19 62.2 19H57.992V7.768H62.2ZM62.024 16.632C63.0587 16.632 63.864 16.3493 64.44 15.784C65.016 15.2187 65.304 14.4187 65.304 13.384C65.304 12.3493 65.016 11.544 64.44 10.968C63.864 10.392 63.0587 10.104 62.024 10.104H60.728V16.632H62.024ZM70.993 9.144C70.513 9.144 70.1183 9.00533 69.809 8.728C69.5103 8.44 69.361 8.088 69.361 7.672C69.361 7.24533 69.5103 6.89333 69.809 6.616C70.1183 6.328 70.513 6.184 70.993 6.184C71.4623 6.184 71.8463 6.328 72.145 6.616C72.4543 6.89333 72.609 7.24533 72.609 7.672C72.609 8.088 72.4543 8.44 72.145 8.728C71.8463 9.00533 71.4623 9.144 70.993 9.144ZM72.353 10.072V19H69.617V10.072H72.353ZM77.9678 19.128C77.1891 19.128 76.4958 18.9947 75.8878 18.728C75.2798 18.4613 74.7998 18.0987 74.4478 17.64C74.0958 17.1707 73.8984 16.648 73.8558 16.072H76.5598C76.5918 16.3813 76.7358 16.632 76.9918 16.824C77.2478 17.016 77.5624 17.112 77.9358 17.112C78.2771 17.112 78.5384 17.048 78.7198 16.92C78.9118 16.7813 79.0078 16.6053 79.0078 16.392C79.0078 16.136 78.8744 15.9493 78.6078 15.832C78.3411 15.704 77.9091 15.5653 77.3118 15.416C76.6718 15.2667 76.1384 15.112 75.7118 14.952C75.2851 14.7813 74.9171 14.52 74.6078 14.168C74.2984 13.8053 74.1438 13.32 74.1438 12.712C74.1438 12.2 74.2824 11.736 74.5598 11.32C74.8478 10.8933 75.2638 10.5573 75.8078 10.312C76.3624 10.0667 77.0184 9.944 77.7758 9.944C78.8958 9.944 79.7758 10.2213 80.4158 10.776C81.0664 11.3307 81.4398 12.0667 81.5358 12.984H79.0078C78.9651 12.6747 78.8264 12.4293 78.5918 12.248C78.3678 12.0667 78.0691 11.976 77.6958 11.976C77.3758 11.976 77.1304 12.04 76.9598 12.168C76.7891 12.2853 76.7038 12.4507 76.7038 12.664C76.7038 12.92 76.8371 13.112 77.1038 13.24C77.3811 13.368 77.8078 13.496 78.3838 13.624C79.0451 13.7947 79.5838 13.9653 79.9998 14.136C80.4158 14.296 80.7784 14.5627 81.0878 14.936C81.4078 15.2987 81.5731 15.7893 81.5838 16.408C81.5838 16.9307 81.4344 17.4 81.1358 17.816C80.8478 18.2213 80.4264 18.5413 79.8718 18.776C79.3278 19.0107 78.6931 19.128 77.9678 19.128ZM85.9936 11.336C86.2603 10.92 86.6283 10.584 87.0976 10.328C87.567 10.072 88.1163 9.944 88.7456 9.944C89.4816 9.944 90.1483 10.1307 90.7456 10.504C91.343 10.8773 91.8123 11.4107 92.1536 12.104C92.5056 12.7973 92.6816 13.6027 92.6816 14.52C92.6816 15.4373 92.5056 16.248 92.1536 16.952C91.8123 17.6453 91.343 18.184 90.7456 18.568C90.1483 18.9413 89.4816 19.128 88.7456 19.128C88.127 19.128 87.5776 19 87.0976 18.744C86.6283 18.488 86.2603 18.1573 85.9936 17.752V23.256H83.2576V10.072H85.9936V11.336ZM89.8976 14.52C89.8976 13.8373 89.7056 13.304 89.3216 12.92C88.9483 12.5253 88.4843 12.328 87.9296 12.328C87.3856 12.328 86.9216 12.5253 86.5376 12.92C86.1643 13.3147 85.9776 13.8533 85.9776 14.536C85.9776 15.2187 86.1643 15.7573 86.5376 16.152C86.9216 16.5467 87.3856 16.744 87.9296 16.744C88.4736 16.744 88.9376 16.5467 89.3216 16.152C89.7056 15.7467 89.8976 15.2027 89.8976 14.52ZM98.181 19.128C97.3063 19.128 96.517 18.9413 95.813 18.568C95.1197 18.1947 94.5703 17.6613 94.165 16.968C93.7703 16.2747 93.573 15.464 93.573 14.536C93.573 13.6187 93.7757 12.8133 94.181 12.12C94.5863 11.416 95.141 10.8773 95.845 10.504C96.549 10.1307 97.3383 9.944 98.213 9.944C99.0877 9.944 99.877 10.1307 100.581 10.504C101.285 10.8773 101.84 11.416 102.245 12.12C102.65 12.8133 102.853 13.6187 102.853 14.536C102.853 15.4533 102.645 16.264 102.229 16.968C101.824 17.6613 101.264 18.1947 100.549 18.568C99.845 18.9413 99.0557 19.128 98.181 19.128ZM98.181 16.76C98.7037 16.76 99.1463 16.568 99.509 16.184C99.8823 15.8 100.069 15.2507 100.069 14.536C100.069 13.8213 99.8877 13.272 99.525 12.888C99.173 12.504 98.7357 12.312 98.213 12.312C97.6797 12.312 97.237 12.504 96.885 12.888C96.533 13.2613 96.357 13.8107 96.357 14.536C96.357 15.2507 96.5277 15.8 96.869 16.184C97.221 16.568 97.6583 16.76 98.181 16.76ZM109.745 9.976C110.79 9.976 111.622 10.3173 112.241 11C112.87 11.672 113.185 12.6 113.185 13.784V19H110.465V14.152C110.465 13.5547 110.31 13.0907 110.001 12.76C109.691 12.4293 109.275 12.264 108.753 12.264C108.23 12.264 107.814 12.4293 107.505 12.76C107.195 13.0907 107.041 13.5547 107.041 14.152V19H104.305V10.072H107.041V11.256C107.318 10.8613 107.691 10.552 108.161 10.328C108.63 10.0933 109.158 9.976 109.745 9.976ZM118.03 10.072V19H115.294V10.072H118.03ZM118.526 7.848L114.67 9.464V7.576L118.526 5.72V7.848ZM124.242 16.44L126.178 10.072H129.09L125.922 19H122.546L119.378 10.072H122.306L124.242 16.44ZM138.658 14.392C138.658 14.648 138.642 14.9147 138.61 15.192H132.418C132.461 15.7467 132.637 16.1733 132.946 16.472C133.266 16.76 133.655 16.904 134.114 16.904C134.797 16.904 135.271 16.616 135.538 16.04H138.45C138.301 16.6267 138.029 17.1547 137.634 17.624C137.25 18.0933 136.765 18.4613 136.178 18.728C135.591 18.9947 134.935 19.128 134.21 19.128C133.335 19.128 132.557 18.9413 131.874 18.568C131.191 18.1947 130.658 17.6613 130.274 16.968C129.89 16.2747 129.698 15.464 129.698 14.536C129.698 13.608 129.885 12.7973 130.258 12.104C130.642 11.4107 131.175 10.8773 131.858 10.504C132.541 10.1307 133.325 9.944 134.21 9.944C135.074 9.944 135.842 10.1253 136.514 10.488C137.186 10.8507 137.709 11.368 138.082 12.04C138.466 12.712 138.658 13.496 138.658 14.392ZM135.858 13.672C135.858 13.2027 135.698 12.8293 135.378 12.552C135.058 12.2747 134.658 12.136 134.178 12.136C133.719 12.136 133.33 12.2693 133.01 12.536C132.701 12.8027 132.509 13.1813 132.434 13.672H135.858ZM142.837 7.16V19H140.101V7.16H142.837ZM150.947 11.336C151.213 10.92 151.581 10.584 152.051 10.328C152.52 10.072 153.069 9.944 153.699 9.944C154.435 9.944 155.101 10.1307 155.699 10.504C156.296 10.8773 156.765 11.4107 157.107 12.104C157.459 12.7973 157.635 13.6027 157.635 14.52C157.635 15.4373 157.459 16.248 157.107 16.952C156.765 17.6453 156.296 18.184 155.699 18.568C155.101 18.9413 154.435 19.128 153.699 19.128C153.08 19.128 152.531 19 152.051 18.744C151.581 18.488 151.213 18.1573 150.947 17.752V23.256H148.211V10.072H150.947V11.336ZM154.851 14.52C154.851 13.8373 154.659 13.304 154.275 12.92C153.901 12.5253 153.437 12.328 152.883 12.328C152.339 12.328 151.875 12.5253 151.491 12.92C151.117 13.3147 150.931 13.8533 150.931 14.536C150.931 15.2187 151.117 15.7573 151.491 16.152C151.875 16.5467 152.339 16.744 152.883 16.744C153.427 16.744 153.891 16.5467 154.275 16.152C154.659 15.7467 154.851 15.2027 154.851 14.52ZM158.526 14.52C158.526 13.6027 158.697 12.7973 159.038 12.104C159.39 11.4107 159.865 10.8773 160.462 10.504C161.059 10.1307 161.726 9.944 162.462 9.944C163.091 9.944 163.641 10.072 164.11 10.328C164.59 10.584 164.958 10.92 165.214 11.336V10.072H167.95V19H165.214V17.736C164.947 18.152 164.574 18.488 164.094 18.744C163.625 19 163.075 19.128 162.446 19.128C161.721 19.128 161.059 18.9413 160.462 18.568C159.865 18.184 159.39 17.6453 159.038 16.952C158.697 16.248 158.526 15.4373 158.526 14.52ZM165.214 14.536C165.214 13.8533 165.022 13.3147 164.638 12.92C164.265 12.5253 163.806 12.328 163.262 12.328C162.718 12.328 162.254 12.5253 161.87 12.92C161.497 13.304 161.31 13.8373 161.31 14.52C161.31 15.2027 161.497 15.7467 161.87 16.152C162.254 16.5467 162.718 16.744 163.262 16.744C163.806 16.744 164.265 16.5467 164.638 16.152C165.022 15.7573 165.214 15.2187 165.214 14.536ZM172.666 11.56C172.986 11.0693 173.386 10.6853 173.866 10.408C174.346 10.12 174.879 9.976 175.466 9.976V12.872H174.714C174.031 12.872 173.519 13.0213 173.178 13.32C172.836 13.608 172.666 14.12 172.666 14.856V19H169.93V10.072H172.666V11.56ZM176.229 14.52C176.229 13.6027 176.4 12.7973 176.741 12.104C177.093 11.4107 177.568 10.8773 178.165 10.504C178.763 10.1307 179.429 9.944 180.165 9.944C180.795 9.944 181.344 10.072 181.813 10.328C182.293 10.584 182.661 10.92 182.917 11.336V10.072H185.653V19H182.917V17.736C182.651 18.152 182.277 18.488 181.797 18.744C181.328 19 180.779 19.128 180.149 19.128C179.424 19.128 178.763 18.9413 178.165 18.568C177.568 18.184 177.093 17.6453 176.741 16.952C176.4 16.248 176.229 15.4373 176.229 14.52ZM182.917 14.536C182.917 13.8533 182.725 13.3147 182.341 12.92C181.968 12.5253 181.509 12.328 180.965 12.328C180.421 12.328 179.957 12.5253 179.573 12.92C179.2 13.304 179.013 13.8373 179.013 14.52C179.013 15.2027 179.2 15.7467 179.573 16.152C179.957 16.5467 180.421 16.744 180.965 16.744C181.509 16.744 181.968 16.5467 182.341 16.152C182.725 15.7573 182.917 15.2187 182.917 14.536ZM196.463 9.976C197.509 9.976 198.341 10.3173 198.959 11C199.589 11.672 199.903 12.6 199.903 13.784V19H197.183V14.152C197.183 13.5547 197.029 13.0907 196.719 12.76C196.41 12.4293 195.994 12.264 195.471 12.264C194.949 12.264 194.533 12.4293 194.223 12.76C193.914 13.0907 193.759 13.5547 193.759 14.152V19H191.023V10.072H193.759V11.256C194.037 10.8613 194.41 10.552 194.879 10.328C195.349 10.0933 195.877 9.976 196.463 9.976ZM205.869 19.128C204.994 19.128 204.205 18.9413 203.501 18.568C202.807 18.1947 202.258 17.6613 201.853 16.968C201.458 16.2747 201.261 15.464 201.261 14.536C201.261 13.6187 201.463 12.8133 201.868 12.12C202.274 11.416 202.829 10.8773 203.533 10.504C204.237 10.1307 205.026 9.944 205.901 9.944C206.775 9.944 207.565 10.1307 208.269 10.504C208.973 10.8773 209.527 11.416 209.933 12.12C210.338 12.8133 210.541 13.6187 210.541 14.536C210.541 15.4533 210.333 16.264 209.917 16.968C209.511 17.6613 208.951 18.1947 208.237 18.568C207.533 18.9413 206.743 19.128 205.869 19.128ZM205.869 16.76C206.391 16.76 206.834 16.568 207.197 16.184C207.57 15.8 207.757 15.2507 207.757 14.536C207.757 13.8213 207.575 13.272 207.213 12.888C206.861 12.504 206.423 12.312 205.901 12.312C205.367 12.312 204.925 12.504 204.573 12.888C204.221 13.2613 204.045 13.8107 204.045 14.536C204.045 15.2507 204.215 15.8 204.557 16.184C204.909 16.568 205.346 16.76 205.869 16.76ZM216.008 16.44L217.944 10.072H220.856L217.688 19H214.312L211.144 10.072H214.072L216.008 16.44ZM226.072 19.128C225.197 19.128 224.408 18.9413 223.704 18.568C223.01 18.1947 222.461 17.6613 222.056 16.968C221.661 16.2747 221.464 15.464 221.464 14.536C221.464 13.6187 221.666 12.8133 222.072 12.12C222.477 11.416 223.032 10.8773 223.736 10.504C224.44 10.1307 225.229 9.944 226.104 9.944C226.978 9.944 227.768 10.1307 228.472 10.504C229.176 10.8773 229.73 11.416 230.136 12.12C230.541 12.8133 230.744 13.6187 230.744 14.536C230.744 15.4533 230.536 16.264 230.12 16.968C229.714 17.6613 229.154 18.1947 228.44 18.568C227.736 18.9413 226.946 19.128 226.072 19.128ZM226.072 16.76C226.594 16.76 227.037 16.568 227.4 16.184C227.773 15.8 227.96 15.2507 227.96 14.536C227.96 13.8213 227.778 13.272 227.416 12.888C227.064 12.504 226.626 12.312 226.104 12.312C225.57 12.312 225.128 12.504 224.776 12.888C224.424 13.2613 224.248 13.8107 224.248 14.536C224.248 15.2507 224.418 15.8 224.76 16.184C225.112 16.568 225.549 16.76 226.072 16.76ZM235.827 19.128C235.048 19.128 234.355 18.9947 233.747 18.728C233.139 18.4613 232.659 18.0987 232.307 17.64C231.955 17.1707 231.758 16.648 231.715 16.072H234.419C234.451 16.3813 234.595 16.632 234.851 16.824C235.107 17.016 235.422 17.112 235.795 17.112C236.136 17.112 236.398 17.048 236.579 16.92C236.771 16.7813 236.867 16.6053 236.867 16.392C236.867 16.136 236.734 15.9493 236.467 15.832C236.2 15.704 235.768 15.5653 235.171 15.416C234.531 15.2667 233.998 15.112 233.571 14.952C233.144 14.7813 232.776 14.52 232.467 14.168C232.158 13.8053 232.003 13.32 232.003 12.712C232.003 12.2 232.142 11.736 232.419 11.32C232.707 10.8933 233.123 10.5573 233.667 10.312C234.222 10.0667 234.878 9.944 235.635 9.944C236.755 9.944 237.635 10.2213 238.275 10.776C238.926 11.3307 239.299 12.0667 239.395 12.984H236.867C236.824 12.6747 236.686 12.4293 236.451 12.248C236.227 12.0667 235.928 11.976 235.555 11.976C235.235 11.976 234.99 12.04 234.819 12.168C234.648 12.2853 234.563 12.4507 234.563 12.664C234.563 12.92 234.696 13.112 234.963 13.24C235.24 13.368 235.667 13.496 236.243 13.624C236.904 13.7947 237.443 13.9653 237.859 14.136C238.275 14.296 238.638 14.5627 238.947 14.936C239.267 15.2987 239.432 15.7893 239.443 16.408C239.443 16.9307 239.294 17.4 238.995 17.816C238.707 18.2213 238.286 18.5413 237.731 18.776C237.187 19.0107 236.552 19.128 235.827 19.128ZM243.964 14.52C243.964 13.6027 244.134 12.7973 244.476 12.104C244.828 11.4107 245.302 10.8773 245.9 10.504C246.497 10.1307 247.164 9.944 247.9 9.944C248.486 9.944 249.02 10.0667 249.5 10.312C249.99 10.5573 250.374 10.888 250.652 11.304V7.16H253.388V19H250.652V17.72C250.396 18.1467 250.028 18.488 249.548 18.744C249.078 19 248.529 19.128 247.9 19.128C247.164 19.128 246.497 18.9413 245.9 18.568C245.302 18.184 244.828 17.6453 244.476 16.952C244.134 16.248 243.964 15.4373 243.964 14.52ZM250.652 14.536C250.652 13.8533 250.46 13.3147 250.076 12.92C249.702 12.5253 249.244 12.328 248.7 12.328C248.156 12.328 247.692 12.5253 247.308 12.92C246.934 13.304 246.748 13.8373 246.748 14.52C246.748 15.2027 246.934 15.7467 247.308 16.152C247.692 16.5467 248.156 16.744 248.7 16.744C249.244 16.744 249.702 16.5467 250.076 16.152C250.46 15.7573 250.652 15.2187 250.652 14.536ZM263.783 14.392C263.783 14.648 263.767 14.9147 263.735 15.192H257.543C257.586 15.7467 257.762 16.1733 258.071 16.472C258.391 16.76 258.78 16.904 259.239 16.904C259.922 16.904 260.396 16.616 260.663 16.04H263.575C263.426 16.6267 263.154 17.1547 262.759 17.624C262.375 18.0933 261.89 18.4613 261.303 18.728C260.716 18.9947 260.06 19.128 259.335 19.128C258.46 19.128 257.682 18.9413 256.999 18.568C256.316 18.1947 255.783 17.6613 255.399 16.968C255.015 16.2747 254.823 15.464 254.823 14.536C254.823 13.608 255.01 12.7973 255.383 12.104C255.767 11.4107 256.3 10.8773 256.983 10.504C257.666 10.1307 258.45 9.944 259.335 9.944C260.199 9.944 260.967 10.1253 261.639 10.488C262.311 10.8507 262.834 11.368 263.207 12.04C263.591 12.712 263.783 13.496 263.783 14.392ZM260.983 13.672C260.983 13.2027 260.823 12.8293 260.503 12.552C260.183 12.2747 259.783 12.136 259.303 12.136C258.844 12.136 258.455 12.2693 258.135 12.536C257.826 12.8027 257.634 13.1813 257.559 13.672H260.983ZM268.858 19.128C268.08 19.128 267.386 18.9947 266.778 18.728C266.17 18.4613 265.69 18.0987 265.338 17.64C264.986 17.1707 264.789 16.648 264.746 16.072H267.45C267.482 16.3813 267.626 16.632 267.882 16.824C268.138 17.016 268.453 17.112 268.826 17.112C269.168 17.112 269.429 17.048 269.61 16.92C269.802 16.7813 269.898 16.6053 269.898 16.392C269.898 16.136 269.765 15.9493 269.498 15.832C269.232 15.704 268.8 15.5653 268.202 15.416C267.562 15.2667 267.029 15.112 266.602 14.952C266.176 14.7813 265.808 14.52 265.498 14.168C265.189 13.8053 265.034 13.32 265.034 12.712C265.034 12.2 265.173 11.736 265.45 11.32C265.738 10.8933 266.154 10.5573 266.698 10.312C267.253 10.0667 267.909 9.944 268.666 9.944C269.786 9.944 270.666 10.2213 271.306 10.776C271.957 11.3307 272.33 12.0667 272.426 12.984H269.898C269.856 12.6747 269.717 12.4293 269.482 12.248C269.258 12.0667 268.96 11.976 268.586 11.976C268.266 11.976 268.021 12.04 267.85 12.168C267.68 12.2853 267.594 12.4507 267.594 12.664C267.594 12.92 267.728 13.112 267.994 13.24C268.272 13.368 268.698 13.496 269.274 13.624C269.936 13.7947 270.474 13.9653 270.89 14.136C271.306 14.296 271.669 14.5627 271.978 14.936C272.298 15.2987 272.464 15.7893 272.474 16.408C272.474 16.9307 272.325 17.4 272.026 17.816C271.738 18.2213 271.317 18.5413 270.762 18.776C270.218 19.0107 269.584 19.128 268.858 19.128ZM273.604 14.52C273.604 13.6027 273.775 12.7973 274.116 12.104C274.468 11.4107 274.943 10.8773 275.54 10.504C276.138 10.1307 276.804 9.944 277.54 9.944C278.17 9.944 278.719 10.072 279.188 10.328C279.668 10.584 280.036 10.92 280.292 11.336V10.072H283.028V19H280.292V17.736C280.026 18.152 279.652 18.488 279.172 18.744C278.703 19 278.154 19.128 277.524 19.128C276.799 19.128 276.138 18.9413 275.54 18.568C274.943 18.184 274.468 17.6453 274.116 16.952C273.775 16.248 273.604 15.4373 273.604 14.52ZM280.292 14.536C280.292 13.8533 280.1 13.3147 279.716 12.92C279.343 12.5253 278.884 12.328 278.34 12.328C277.796 12.328 277.332 12.5253 276.948 12.92C276.575 13.304 276.388 13.8373 276.388 14.52C276.388 15.2027 276.575 15.7467 276.948 16.152C277.332 16.5467 277.796 16.744 278.34 16.744C278.884 16.744 279.343 16.5467 279.716 16.152C280.1 15.7573 280.292 15.2187 280.292 14.536ZM289.488 12.344H288.016V19H285.28V12.344H284.288V10.072H285.28V9.816C285.28 8.71733 285.594 7.88533 286.224 7.32C286.853 6.744 287.776 6.456 288.992 6.456C289.194 6.456 289.344 6.46133 289.44 6.472V8.792C288.917 8.76 288.549 8.83467 288.336 9.016C288.122 9.19733 288.016 9.52267 288.016 9.992V10.072H289.488V12.344ZM292.149 9.144C291.669 9.144 291.275 9.00533 290.965 8.728C290.667 8.44 290.517 8.088 290.517 7.672C290.517 7.24533 290.667 6.89333 290.965 6.616C291.275 6.328 291.669 6.184 292.149 6.184C292.619 6.184 293.003 6.328 293.301 6.616C293.611 6.89333 293.765 7.24533 293.765 7.672C293.765 8.088 293.611 8.44 293.301 8.728C293.003 9.00533 292.619 9.144 292.149 9.144ZM293.509 10.072V19H290.773V10.072H293.509ZM299.556 19.128C298.681 19.128 297.892 18.9413 297.188 18.568C296.495 18.1947 295.945 17.6613 295.54 16.968C295.145 16.2747 294.948 15.464 294.948 14.536C294.948 13.6187 295.151 12.8133 295.556 12.12C295.961 11.416 296.516 10.8773 297.22 10.504C297.924 10.1307 298.713 9.944 299.588 9.944C300.463 9.944 301.252 10.1307 301.956 10.504C302.66 10.8773 303.215 11.416 303.62 12.12C304.025 12.8133 304.228 13.6187 304.228 14.536C304.228 15.4533 304.02 16.264 303.604 16.968C303.199 17.6613 302.639 18.1947 301.924 18.568C301.22 18.9413 300.431 19.128 299.556 19.128ZM299.556 16.76C300.079 16.76 300.521 16.568 300.884 16.184C301.257 15.8 301.444 15.2507 301.444 14.536C301.444 13.8213 301.263 13.272 300.9 12.888C300.548 12.504 300.111 12.312 299.588 12.312C299.055 12.312 298.612 12.504 298.26 12.888C297.908 13.2613 297.732 13.8107 297.732 14.536C297.732 15.2507 297.903 15.8 298.244 16.184C298.596 16.568 299.033 16.76 299.556 16.76ZM309.312 19.128C308.533 19.128 307.84 18.9947 307.232 18.728C306.624 18.4613 306.144 18.0987 305.792 17.64C305.44 17.1707 305.242 16.648 305.2 16.072H307.904C307.936 16.3813 308.08 16.632 308.336 16.824C308.592 17.016 308.906 17.112 309.28 17.112C309.621 17.112 309.882 17.048 310.064 16.92C310.256 16.7813 310.352 16.6053 310.352 16.392C310.352 16.136 310.218 15.9493 309.952 15.832C309.685 15.704 309.253 15.5653 308.656 15.416C308.016 15.2667 307.482 15.112 307.056 14.952C306.629 14.7813 306.261 14.52 305.952 14.168C305.642 13.8053 305.488 13.32 305.488 12.712C305.488 12.2 305.626 11.736 305.904 11.32C306.192 10.8933 306.608 10.5573 307.152 10.312C307.706 10.0667 308.362 9.944 309.12 9.944C310.24 9.944 311.12 10.2213 311.76 10.776C312.41 11.3307 312.784 12.0667 312.88 12.984H310.352C310.309 12.6747 310.17 12.4293 309.936 12.248C309.712 12.0667 309.413 11.976 309.04 11.976C308.72 11.976 308.474 12.04 308.304 12.168C308.133 12.2853 308.048 12.4507 308.048 12.664C308.048 12.92 308.181 13.112 308.448 13.24C308.725 13.368 309.152 13.496 309.728 13.624C310.389 13.7947 310.928 13.9653 311.344 14.136C311.76 14.296 312.122 14.5627 312.432 14.936C312.752 15.2987 312.917 15.7893 312.928 16.408C312.928 16.9307 312.778 17.4 312.48 17.816C312.192 18.2213 311.77 18.5413 311.216 18.776C310.672 19.0107 310.037 19.128 309.312 19.128ZM318.201 7.368L317.881 15.032H315.561L315.241 7.368H318.201ZM316.761 19.128C316.281 19.128 315.887 18.9893 315.577 18.712C315.279 18.424 315.129 18.072 315.129 17.656C315.129 17.2293 315.279 16.872 315.577 16.584C315.887 16.296 316.281 16.152 316.761 16.152C317.231 16.152 317.615 16.296 317.913 16.584C318.223 16.872 318.377 17.2293 318.377 17.656C318.377 18.072 318.223 18.424 317.913 18.712C317.615 18.9893 317.231 19.128 316.761 19.128Z" fill="white"/>
</svg>
