<svg width="782" height="154" viewBox="0 0 782 154" fill="none" xmlns="http://www.w3.org/2000/svg">
<rect width="782" height="154" fill="url(#paint0_linear_10_850)"/>
<path d="M340 154L263 77L340 0L358.288 18.2875L299.254 77.3208L357.967 136.033L340 154ZM442.667 154L424.379 135.713L483.413 76.6792L424.7 17.9667L442.667 0L519.667 77L442.667 154Z" fill="#283593"/>
<path d="M270.08 83H278.84V89H262.24V60.8H270.08V83ZM304.848 66.56V89H296.968V85.8C296.302 86.8133 295.382 87.64 294.208 88.28C293.035 88.8933 291.688 89.2 290.168 89.2C287.555 89.2 285.488 88.3467 283.968 86.64C282.475 84.9067 281.728 82.56 281.728 79.6V66.56H289.528V78.6C289.528 79.88 289.862 80.8933 290.528 81.64C291.222 82.36 292.128 82.72 293.248 82.72C294.395 82.72 295.302 82.36 295.968 81.64C296.635 80.8933 296.968 79.88 296.968 78.6V66.56H304.848ZM308.03 77.76C308.03 75.44 308.51 73.4133 309.47 71.68C310.43 69.9467 311.764 68.6133 313.47 67.68C315.204 66.7467 317.177 66.28 319.39 66.28C322.244 66.28 324.644 67.0667 326.59 68.64C328.537 70.1867 329.79 72.36 330.35 75.16H322.03C321.55 73.6933 320.617 72.96 319.23 72.96C318.244 72.96 317.457 73.3733 316.87 74.2C316.31 75 316.03 76.1867 316.03 77.76C316.03 79.3333 316.31 80.5333 316.87 81.36C317.457 82.1867 318.244 82.6 319.23 82.6C320.644 82.6 321.577 81.8667 322.03 80.4H330.35C329.79 83.1733 328.537 85.3467 326.59 86.92C324.644 88.4933 322.244 89.28 319.39 89.28C317.177 89.28 315.204 88.8133 313.47 87.88C311.764 86.9467 310.43 85.6133 309.47 83.88C308.51 82.1467 308.03 80.1067 308.03 77.76ZM332.327 77.76C332.327 75.44 332.741 73.4133 333.567 71.68C334.421 69.9467 335.567 68.6133 337.007 67.68C338.474 66.7467 340.101 66.28 341.887 66.28C343.434 66.28 344.767 66.5867 345.887 67.2C347.007 67.8133 347.874 68.64 348.487 69.68V66.56H356.327V89H348.487V85.88C347.874 86.92 346.994 87.7467 345.847 88.36C344.727 88.9733 343.407 89.28 341.887 89.28C340.101 89.28 338.474 88.8133 337.007 87.88C335.567 86.9467 334.421 85.6133 333.567 83.88C332.741 82.12 332.327 80.08 332.327 77.76ZM348.487 77.76C348.487 76.32 348.087 75.1867 347.287 74.36C346.514 73.5333 345.554 73.12 344.407 73.12C343.234 73.12 342.261 73.5333 341.487 74.36C340.714 75.16 340.327 76.2933 340.327 77.76C340.327 79.2 340.714 80.3467 341.487 81.2C342.261 82.0267 343.234 82.44 344.407 82.44C345.554 82.44 346.514 82.0267 347.287 81.2C348.087 80.3733 348.487 79.2267 348.487 77.76ZM370.355 89.28C368.328 89.28 366.515 88.9467 364.915 88.28C363.341 87.5867 362.088 86.6533 361.155 85.48C360.248 84.28 359.741 82.9333 359.635 81.44H367.235C367.341 82.16 367.675 82.72 368.235 83.12C368.795 83.52 369.488 83.72 370.315 83.72C370.955 83.72 371.461 83.5867 371.835 83.32C372.208 83.0533 372.395 82.7067 372.395 82.28C372.395 81.72 372.088 81.3067 371.475 81.04C370.861 80.7733 369.848 80.48 368.435 80.16C366.835 79.84 365.501 79.48 364.435 79.08C363.368 78.68 362.435 78.0267 361.635 77.12C360.861 76.2133 360.475 74.9867 360.475 73.44C360.475 72.1067 360.835 70.9067 361.555 69.84C362.275 68.7467 363.328 67.88 364.715 67.24C366.128 66.6 367.821 66.28 369.795 66.28C372.728 66.28 375.035 67 376.715 68.44C378.395 69.88 379.368 71.7733 379.635 74.12H372.555C372.421 73.4 372.101 72.8533 371.595 72.48C371.115 72.08 370.461 71.88 369.635 71.88C368.995 71.88 368.501 72 368.155 72.24C367.835 72.48 367.675 72.8133 367.675 73.24C367.675 73.7733 367.981 74.1867 368.595 74.48C369.208 74.7467 370.195 75.0267 371.555 75.32C373.181 75.6667 374.528 76.0533 375.595 76.48C376.688 76.9067 377.635 77.6 378.435 78.56C379.261 79.4933 379.675 80.7733 379.675 82.4C379.675 83.7067 379.288 84.88 378.515 85.92C377.768 86.96 376.688 87.7867 375.275 88.4C373.888 88.9867 372.248 89.28 370.355 89.28ZM401.825 89.28C398.545 89.28 395.852 88.5067 393.745 86.96C391.639 85.3867 390.505 83.1467 390.345 80.24H398.705C398.785 81.2267 399.079 81.9467 399.585 82.4C400.092 82.8533 400.745 83.08 401.545 83.08C402.265 83.08 402.852 82.9067 403.305 82.56C403.785 82.1867 404.025 81.68 404.025 81.04C404.025 80.2133 403.639 79.5733 402.865 79.12C402.092 78.6667 400.839 78.16 399.105 77.6C397.265 76.9867 395.772 76.4 394.625 75.84C393.505 75.2533 392.519 74.4133 391.665 73.32C390.839 72.2 390.425 70.7467 390.425 68.96C390.425 67.1467 390.879 65.6 391.785 64.32C392.692 63.0133 393.945 62.0267 395.545 61.36C397.145 60.6933 398.959 60.36 400.985 60.36C404.265 60.36 406.879 61.1333 408.825 62.68C410.799 64.2 411.852 66.3467 411.985 69.12H403.465C403.439 68.2667 403.172 67.6267 402.665 67.2C402.185 66.7733 401.559 66.56 400.785 66.56C400.199 66.56 399.719 66.7333 399.345 67.08C398.972 67.4267 398.785 67.92 398.785 68.56C398.785 69.0933 398.985 69.56 399.385 69.96C399.812 70.3333 400.332 70.6667 400.945 70.96C401.559 71.2267 402.465 71.5733 403.665 72C405.452 72.6133 406.919 73.2267 408.065 73.84C409.239 74.4267 410.239 75.2667 411.065 76.36C411.919 77.4267 412.345 78.7867 412.345 80.44C412.345 82.12 411.919 83.6267 411.065 84.96C410.239 86.2933 409.025 87.3467 407.425 88.12C405.852 88.8933 403.985 89.28 401.825 89.28ZM419.95 64.48C418.563 64.48 417.443 64.1067 416.59 63.36C415.763 62.5867 415.35 61.6267 415.35 60.48C415.35 59.3067 415.763 58.3333 416.59 57.56C417.443 56.7867 418.563 56.4 419.95 56.4C421.31 56.4 422.403 56.7867 423.23 57.56C424.083 58.3333 424.51 59.3067 424.51 60.48C424.51 61.6267 424.083 62.5867 423.23 63.36C422.403 64.1067 421.31 64.48 419.95 64.48ZM423.83 66.56V89H415.99V66.56H423.83ZM436.135 59.4V89H428.295V59.4H436.135ZM451.359 81.6L455.559 66.56H463.919L456.199 89H446.439L438.719 66.56H447.079L451.359 81.6ZM465.296 77.76C465.296 75.44 465.709 73.4133 466.536 71.68C467.389 69.9467 468.536 68.6133 469.976 67.68C471.443 66.7467 473.069 66.28 474.856 66.28C476.403 66.28 477.736 66.5867 478.856 67.2C479.976 67.8133 480.843 68.64 481.456 69.68V66.56H489.296V89H481.456V85.88C480.843 86.92 479.963 87.7467 478.816 88.36C477.696 88.9733 476.376 89.28 474.856 89.28C473.069 89.28 471.443 88.8133 469.976 87.88C468.536 86.9467 467.389 85.6133 466.536 83.88C465.709 82.12 465.296 80.08 465.296 77.76ZM481.456 77.76C481.456 76.32 481.056 75.1867 480.256 74.36C479.483 73.5333 478.523 73.12 477.376 73.12C476.203 73.12 475.229 73.5333 474.456 74.36C473.683 75.16 473.296 76.2933 473.296 77.76C473.296 79.2 473.683 80.3467 474.456 81.2C475.229 82.0267 476.203 82.44 477.376 82.44C478.523 82.44 479.483 82.0267 480.256 81.2C481.056 80.3733 481.456 79.2267 481.456 77.76Z" fill="white"/>
<path d="M299.304 39.768V41.96H294.728V44.328H298.152V46.456H294.728V51H291.992V39.768H299.304ZM303.478 43.56C303.798 43.0693 304.198 42.6853 304.678 42.408C305.158 42.12 305.691 41.976 306.278 41.976V44.872H305.526C304.843 44.872 304.331 45.0213 303.99 45.32C303.649 45.608 303.478 46.12 303.478 46.856V51H300.742V42.072H303.478V43.56ZM311.65 51.128C310.775 51.128 309.986 50.9413 309.282 50.568C308.588 50.1947 308.039 49.6613 307.634 48.968C307.239 48.2747 307.042 47.464 307.042 46.536C307.042 45.6187 307.244 44.8133 307.65 44.12C308.055 43.416 308.61 42.8773 309.314 42.504C310.018 42.1307 310.807 41.944 311.682 41.944C312.556 41.944 313.346 42.1307 314.05 42.504C314.754 42.8773 315.308 43.416 315.714 44.12C316.119 44.8133 316.322 45.6187 316.322 46.536C316.322 47.4533 316.114 48.264 315.698 48.968C315.292 49.6613 314.732 50.1947 314.018 50.568C313.314 50.9413 312.524 51.128 311.65 51.128ZM311.65 48.76C312.172 48.76 312.615 48.568 312.978 48.184C313.351 47.8 313.538 47.2507 313.538 46.536C313.538 45.8213 313.356 45.272 312.994 44.888C312.642 44.504 312.204 44.312 311.682 44.312C311.148 44.312 310.706 44.504 310.354 44.888C310.002 45.2613 309.826 45.8107 309.826 46.536C309.826 47.2507 309.996 47.8 310.338 48.184C310.69 48.568 311.127 48.76 311.65 48.76ZM323.213 41.976C324.259 41.976 325.091 42.3173 325.709 43C326.339 43.672 326.653 44.6 326.653 45.784V51H323.933V46.152C323.933 45.5547 323.779 45.0907 323.469 44.76C323.16 44.4293 322.744 44.264 322.221 44.264C321.699 44.264 321.283 44.4293 320.973 44.76C320.664 45.0907 320.509 45.5547 320.509 46.152V51H317.773V42.072H320.509V43.256C320.787 42.8613 321.16 42.552 321.629 42.328C322.099 42.0933 322.627 41.976 323.213 41.976ZM333.531 48.68V51H332.139C331.147 51 330.373 50.76 329.819 50.28C329.264 49.7893 328.987 48.9947 328.987 47.896V44.344H327.899V42.072H328.987V39.896H331.723V42.072H333.515V44.344H331.723V47.928C331.723 48.1947 331.787 48.3867 331.915 48.504C332.043 48.6213 332.256 48.68 332.555 48.68H333.531ZM341.935 44.248V46.52H334.895V44.248H341.935ZM347.072 41.96V44.232H350.736V46.344H347.072V48.808H351.216V51H344.336V39.768H351.216V41.96H347.072ZM358.432 41.976C359.477 41.976 360.309 42.3173 360.928 43C361.557 43.672 361.872 44.6 361.872 45.784V51H359.152V46.152C359.152 45.5547 358.997 45.0907 358.688 44.76C358.379 44.4293 357.963 44.264 357.44 44.264C356.917 44.264 356.501 44.4293 356.192 44.76C355.883 45.0907 355.728 45.5547 355.728 46.152V51H352.992V42.072H355.728V43.256C356.005 42.8613 356.379 42.552 356.848 42.328C357.317 42.0933 357.845 41.976 358.432 41.976ZM363.229 46.52C363.229 45.6027 363.4 44.7973 363.741 44.104C364.093 43.4107 364.568 42.8773 365.165 42.504C365.763 42.1307 366.429 41.944 367.165 41.944C367.752 41.944 368.285 42.0667 368.765 42.312C369.256 42.5573 369.64 42.888 369.917 43.304V39.16H372.653V51H369.917V49.72C369.661 50.1467 369.293 50.488 368.813 50.744C368.344 51 367.795 51.128 367.165 51.128C366.429 51.128 365.763 50.9413 365.165 50.568C364.568 50.184 364.093 49.6453 363.741 48.952C363.4 48.248 363.229 47.4373 363.229 46.52ZM369.917 46.536C369.917 45.8533 369.725 45.3147 369.341 44.92C368.968 44.5253 368.509 44.328 367.965 44.328C367.421 44.328 366.957 44.5253 366.573 44.92C366.2 45.304 366.013 45.8373 366.013 46.52C366.013 47.2027 366.2 47.7467 366.573 48.152C366.957 48.5467 367.421 48.744 367.965 48.744C368.509 48.744 368.968 48.5467 369.341 48.152C369.725 47.7573 369.917 47.2187 369.917 46.536ZM382.231 39.768C383.415 39.768 384.45 40.0027 385.335 40.472C386.221 40.9413 386.903 41.6027 387.383 42.456C387.874 43.2987 388.119 44.2747 388.119 45.384C388.119 46.4827 387.874 47.4587 387.383 48.312C386.903 49.1653 386.215 49.8267 385.319 50.296C384.434 50.7653 383.405 51 382.231 51H378.023V39.768H382.231ZM382.055 48.632C383.09 48.632 383.895 48.3493 384.471 47.784C385.047 47.2187 385.335 46.4187 385.335 45.384C385.335 44.3493 385.047 43.544 384.471 42.968C383.895 42.392 383.09 42.104 382.055 42.104H380.759V48.632H382.055ZM398.064 46.392C398.064 46.648 398.048 46.9147 398.016 47.192H391.824C391.867 47.7467 392.043 48.1733 392.352 48.472C392.672 48.76 393.062 48.904 393.52 48.904C394.203 48.904 394.678 48.616 394.944 48.04H397.856C397.707 48.6267 397.435 49.1547 397.04 49.624C396.656 50.0933 396.171 50.4613 395.584 50.728C394.998 50.9947 394.342 51.128 393.616 51.128C392.742 51.128 391.963 50.9413 391.28 50.568C390.598 50.1947 390.064 49.6613 389.68 48.968C389.296 48.2747 389.104 47.464 389.104 46.536C389.104 45.608 389.291 44.7973 389.664 44.104C390.048 43.4107 390.582 42.8773 391.264 42.504C391.947 42.1307 392.731 41.944 393.616 41.944C394.48 41.944 395.248 42.1253 395.92 42.488C396.592 42.8507 397.115 43.368 397.488 44.04C397.872 44.712 398.064 45.496 398.064 46.392ZM395.264 45.672C395.264 45.2027 395.104 44.8293 394.784 44.552C394.464 44.2747 394.064 44.136 393.584 44.136C393.126 44.136 392.736 44.2693 392.416 44.536C392.107 44.8027 391.915 45.1813 391.84 45.672H395.264ZM403.524 48.44L405.46 42.072H408.372L405.204 51H401.828L398.66 42.072H401.588L403.524 48.44ZM417.939 46.392C417.939 46.648 417.923 46.9147 417.891 47.192H411.699C411.742 47.7467 411.918 48.1733 412.227 48.472C412.547 48.76 412.937 48.904 413.395 48.904C414.078 48.904 414.553 48.616 414.819 48.04H417.731C417.582 48.6267 417.31 49.1547 416.915 49.624C416.531 50.0933 416.046 50.4613 415.459 50.728C414.873 50.9947 414.217 51.128 413.491 51.128C412.617 51.128 411.838 50.9413 411.155 50.568C410.473 50.1947 409.939 49.6613 409.555 48.968C409.171 48.2747 408.979 47.464 408.979 46.536C408.979 45.608 409.166 44.7973 409.539 44.104C409.923 43.4107 410.457 42.8773 411.139 42.504C411.822 42.1307 412.606 41.944 413.491 41.944C414.355 41.944 415.123 42.1253 415.795 42.488C416.467 42.8507 416.99 43.368 417.363 44.04C417.747 44.712 417.939 45.496 417.939 46.392ZM415.139 45.672C415.139 45.2027 414.979 44.8293 414.659 44.552C414.339 44.2747 413.939 44.136 413.459 44.136C413.001 44.136 412.611 44.2693 412.291 44.536C411.982 44.8027 411.79 45.1813 411.715 45.672H415.139ZM422.119 39.16V51H419.383V39.16H422.119ZM428.165 51.128C427.291 51.128 426.501 50.9413 425.797 50.568C425.104 50.1947 424.555 49.6613 424.149 48.968C423.755 48.2747 423.557 47.464 423.557 46.536C423.557 45.6187 423.76 44.8133 424.165 44.12C424.571 43.416 425.125 42.8773 425.829 42.504C426.533 42.1307 427.323 41.944 428.197 41.944C429.072 41.944 429.861 42.1307 430.565 42.504C431.269 42.8773 431.824 43.416 432.229 44.12C432.635 44.8133 432.837 45.6187 432.837 46.536C432.837 47.4533 432.629 48.264 432.213 48.968C431.808 49.6613 431.248 50.1947 430.533 50.568C429.829 50.9413 429.04 51.128 428.165 51.128ZM428.165 48.76C428.688 48.76 429.131 48.568 429.493 48.184C429.867 47.8 430.053 47.2507 430.053 46.536C430.053 45.8213 429.872 45.272 429.509 44.888C429.157 44.504 428.72 44.312 428.197 44.312C427.664 44.312 427.221 44.504 426.869 44.888C426.517 45.2613 426.341 45.8107 426.341 46.536C426.341 47.2507 426.512 47.8 426.853 48.184C427.205 48.568 427.643 48.76 428.165 48.76ZM437.025 43.336C437.292 42.92 437.66 42.584 438.129 42.328C438.598 42.072 439.148 41.944 439.777 41.944C440.513 41.944 441.18 42.1307 441.777 42.504C442.374 42.8773 442.844 43.4107 443.185 44.104C443.537 44.7973 443.713 45.6027 443.713 46.52C443.713 47.4373 443.537 48.248 443.185 48.952C442.844 49.6453 442.374 50.184 441.777 50.568C441.18 50.9413 440.513 51.128 439.777 51.128C439.158 51.128 438.609 51 438.129 50.744C437.66 50.488 437.292 50.1573 437.025 49.752V55.256H434.289V42.072H437.025V43.336ZM440.929 46.52C440.929 45.8373 440.737 45.304 440.353 44.92C439.98 44.5253 439.516 44.328 438.961 44.328C438.417 44.328 437.953 44.5253 437.569 44.92C437.196 45.3147 437.009 45.8533 437.009 46.536C437.009 47.2187 437.196 47.7573 437.569 48.152C437.953 48.5467 438.417 48.744 438.961 48.744C439.505 48.744 439.969 48.5467 440.353 48.152C440.737 47.7467 440.929 47.2027 440.929 46.52ZM453.564 46.392C453.564 46.648 453.548 46.9147 453.516 47.192H447.324C447.367 47.7467 447.543 48.1733 447.852 48.472C448.172 48.76 448.562 48.904 449.02 48.904C449.703 48.904 450.178 48.616 450.444 48.04H453.356C453.207 48.6267 452.935 49.1547 452.54 49.624C452.156 50.0933 451.671 50.4613 451.084 50.728C450.498 50.9947 449.842 51.128 449.116 51.128C448.242 51.128 447.463 50.9413 446.78 50.568C446.098 50.1947 445.564 49.6613 445.18 48.968C444.796 48.2747 444.604 47.464 444.604 46.536C444.604 45.608 444.791 44.7973 445.164 44.104C445.548 43.4107 446.082 42.8773 446.764 42.504C447.447 42.1307 448.231 41.944 449.116 41.944C449.98 41.944 450.748 42.1253 451.42 42.488C452.092 42.8507 452.615 43.368 452.988 44.04C453.372 44.712 453.564 45.496 453.564 46.392ZM450.764 45.672C450.764 45.2027 450.604 44.8293 450.284 44.552C449.964 44.2747 449.564 44.136 449.084 44.136C448.626 44.136 448.236 44.2693 447.916 44.536C447.607 44.8027 447.415 45.1813 447.34 45.672H450.764ZM457.744 43.56C458.064 43.0693 458.464 42.6853 458.944 42.408C459.424 42.12 459.957 41.976 460.544 41.976V44.872H459.792C459.109 44.872 458.597 45.0213 458.256 45.32C457.914 45.608 457.744 46.12 457.744 46.856V51H455.008V42.072H457.744V43.56Z" fill="white"/>
<path d="M164.096 103.848V105.032H161.056V115H159.6V105.032H156.544V103.848H164.096ZM167.344 107.656C167.6 107.155 167.963 106.765 168.432 106.488C168.912 106.211 169.494 106.072 170.176 106.072V107.576H169.792C168.16 107.576 167.344 108.461 167.344 110.232V115H165.888V106.232H167.344V107.656ZM171.313 110.584C171.313 109.688 171.494 108.904 171.857 108.232C172.22 107.549 172.716 107.021 173.345 106.648C173.985 106.275 174.694 106.088 175.473 106.088C176.241 106.088 176.908 106.253 177.473 106.584C178.038 106.915 178.46 107.331 178.737 107.832V106.232H180.209V115H178.737V113.368C178.449 113.88 178.017 114.307 177.441 114.648C176.876 114.979 176.214 115.144 175.457 115.144C174.678 115.144 173.974 114.952 173.345 114.568C172.716 114.184 172.22 113.645 171.857 112.952C171.494 112.259 171.313 111.469 171.313 110.584ZM178.737 110.6C178.737 109.939 178.604 109.363 178.337 108.872C178.07 108.381 177.708 108.008 177.249 107.752C176.801 107.485 176.305 107.352 175.761 107.352C175.217 107.352 174.721 107.48 174.273 107.736C173.825 107.992 173.468 108.365 173.201 108.856C172.934 109.347 172.801 109.923 172.801 110.584C172.801 111.256 172.934 111.843 173.201 112.344C173.468 112.835 173.825 113.213 174.273 113.48C174.721 113.736 175.217 113.864 175.761 113.864C176.305 113.864 176.801 113.736 177.249 113.48C177.708 113.213 178.07 112.835 178.337 112.344C178.604 111.843 178.737 111.261 178.737 110.6ZM186.942 106.072C188.008 106.072 188.872 106.397 189.534 107.048C190.195 107.688 190.526 108.616 190.526 109.832V115H189.086V110.04C189.086 109.165 188.867 108.499 188.43 108.04C187.992 107.571 187.395 107.336 186.638 107.336C185.87 107.336 185.256 107.576 184.798 108.056C184.35 108.536 184.126 109.235 184.126 110.152V115H182.67V106.232H184.126V107.48C184.414 107.032 184.803 106.685 185.294 106.44C185.795 106.195 186.344 106.072 186.942 106.072ZM196.008 115.144C195.336 115.144 194.733 115.032 194.2 114.808C193.667 114.573 193.245 114.253 192.936 113.848C192.627 113.432 192.456 112.957 192.424 112.424H193.928C193.971 112.861 194.173 113.219 194.536 113.496C194.909 113.773 195.395 113.912 195.992 113.912C196.547 113.912 196.984 113.789 197.304 113.544C197.624 113.299 197.784 112.989 197.784 112.616C197.784 112.232 197.613 111.949 197.272 111.768C196.931 111.576 196.403 111.389 195.688 111.208C195.037 111.037 194.504 110.867 194.088 110.696C193.683 110.515 193.331 110.253 193.032 109.912C192.744 109.56 192.6 109.101 192.6 108.536C192.6 108.088 192.733 107.677 193 107.304C193.267 106.931 193.645 106.637 194.136 106.424C194.627 106.2 195.187 106.088 195.816 106.088C196.787 106.088 197.571 106.333 198.168 106.824C198.765 107.315 199.085 107.987 199.128 108.84H197.672C197.64 108.381 197.453 108.013 197.112 107.736C196.781 107.459 196.333 107.32 195.768 107.32C195.245 107.32 194.829 107.432 194.52 107.656C194.211 107.88 194.056 108.173 194.056 108.536C194.056 108.824 194.147 109.064 194.328 109.256C194.52 109.437 194.755 109.587 195.032 109.704C195.32 109.811 195.715 109.933 196.216 110.072C196.845 110.243 197.357 110.413 197.752 110.584C198.147 110.744 198.483 110.989 198.76 111.32C199.048 111.651 199.197 112.083 199.208 112.616C199.208 113.096 199.075 113.528 198.808 113.912C198.541 114.296 198.163 114.6 197.672 114.824C197.192 115.037 196.637 115.144 196.008 115.144ZM204.831 107.432H202.991V115H201.535V107.432H200.399V106.232H201.535V105.608C201.535 104.627 201.786 103.912 202.287 103.464C202.799 103.005 203.615 102.776 204.735 102.776V103.992C204.095 103.992 203.642 104.12 203.375 104.376C203.119 104.621 202.991 105.032 202.991 105.608V106.232H204.831V107.432ZM210.353 115.144C209.532 115.144 208.785 114.957 208.113 114.584C207.452 114.211 206.929 113.683 206.545 113C206.172 112.307 205.985 111.507 205.985 110.6C205.985 109.704 206.177 108.915 206.561 108.232C206.956 107.539 207.489 107.011 208.161 106.648C208.833 106.275 209.585 106.088 210.417 106.088C211.249 106.088 212.001 106.275 212.673 106.648C213.345 107.011 213.873 107.533 214.257 108.216C214.652 108.899 214.849 109.693 214.849 110.6C214.849 111.507 214.646 112.307 214.241 113C213.846 113.683 213.308 114.211 212.625 114.584C211.942 114.957 211.185 115.144 210.353 115.144ZM210.353 113.864C210.876 113.864 211.366 113.741 211.825 113.496C212.284 113.251 212.652 112.883 212.929 112.392C213.217 111.901 213.361 111.304 213.361 110.6C213.361 109.896 213.222 109.299 212.945 108.808C212.668 108.317 212.305 107.955 211.857 107.72C211.409 107.475 210.924 107.352 210.401 107.352C209.868 107.352 209.377 107.475 208.929 107.72C208.492 107.955 208.14 108.317 207.873 108.808C207.606 109.299 207.473 109.896 207.473 110.6C207.473 111.315 207.601 111.917 207.857 112.408C208.124 112.899 208.476 113.267 208.913 113.512C209.35 113.747 209.83 113.864 210.353 113.864ZM218.219 107.656C218.475 107.155 218.838 106.765 219.307 106.488C219.787 106.211 220.369 106.072 221.051 106.072V107.576H220.667C219.035 107.576 218.219 108.461 218.219 110.232V115H216.763V106.232H218.219V107.656ZM233.276 106.072C233.959 106.072 234.567 106.216 235.1 106.504C235.633 106.781 236.055 107.203 236.364 107.768C236.673 108.333 236.828 109.021 236.828 109.832V115H235.388V110.04C235.388 109.165 235.169 108.499 234.732 108.04C234.305 107.571 233.724 107.336 232.988 107.336C232.231 107.336 231.628 107.581 231.18 108.072C230.732 108.552 230.508 109.251 230.508 110.168V115H229.068V110.04C229.068 109.165 228.849 108.499 228.412 108.04C227.985 107.571 227.404 107.336 226.668 107.336C225.911 107.336 225.308 107.581 224.86 108.072C224.412 108.552 224.188 109.251 224.188 110.168V115H222.732V106.232H224.188V107.496C224.476 107.037 224.86 106.685 225.34 106.44C225.831 106.195 226.369 106.072 226.956 106.072C227.692 106.072 228.343 106.237 228.908 106.568C229.473 106.899 229.895 107.384 230.172 108.024C230.417 107.405 230.823 106.925 231.388 106.584C231.953 106.243 232.583 106.072 233.276 106.072ZM238.672 110.584C238.672 109.688 238.854 108.904 239.216 108.232C239.579 107.549 240.075 107.021 240.704 106.648C241.344 106.275 242.054 106.088 242.832 106.088C243.6 106.088 244.267 106.253 244.832 106.584C245.398 106.915 245.819 107.331 246.096 107.832V106.232H247.568V115H246.096V113.368C245.808 113.88 245.376 114.307 244.8 114.648C244.235 114.979 243.574 115.144 242.816 115.144C242.038 115.144 241.334 114.952 240.704 114.568C240.075 114.184 239.579 113.645 239.216 112.952C238.854 112.259 238.672 111.469 238.672 110.584ZM246.096 110.6C246.096 109.939 245.963 109.363 245.696 108.872C245.43 108.381 245.067 108.008 244.608 107.752C244.16 107.485 243.664 107.352 243.12 107.352C242.576 107.352 242.08 107.48 241.632 107.736C241.184 107.992 240.827 108.365 240.56 108.856C240.294 109.347 240.16 109.923 240.16 110.584C240.16 111.256 240.294 111.843 240.56 112.344C240.827 112.835 241.184 113.213 241.632 113.48C242.08 113.736 242.576 113.864 243.12 113.864C243.664 113.864 244.16 113.736 244.608 113.48C245.067 113.213 245.43 112.835 245.696 112.344C245.963 111.843 246.096 111.261 246.096 110.6ZM254.301 106.072C255.368 106.072 256.232 106.397 256.893 107.048C257.554 107.688 257.885 108.616 257.885 109.832V115H256.445V110.04C256.445 109.165 256.226 108.499 255.789 108.04C255.352 107.571 254.754 107.336 253.997 107.336C253.229 107.336 252.616 107.576 252.157 108.056C251.709 108.536 251.485 109.235 251.485 110.152V115H250.029V106.232H251.485V107.48C251.773 107.032 252.162 106.685 252.653 106.44C253.154 106.195 253.704 106.072 254.301 106.072ZM259.719 110.584C259.719 109.688 259.901 108.904 260.263 108.232C260.626 107.549 261.122 107.021 261.751 106.648C262.391 106.275 263.106 106.088 263.895 106.088C264.578 106.088 265.213 106.248 265.799 106.568C266.386 106.877 266.834 107.288 267.143 107.8V103.16H268.615V115H267.143V113.352C266.855 113.875 266.429 114.307 265.863 114.648C265.298 114.979 264.637 115.144 263.879 115.144C263.101 115.144 262.391 114.952 261.751 114.568C261.122 114.184 260.626 113.645 260.263 112.952C259.901 112.259 259.719 111.469 259.719 110.584ZM267.143 110.6C267.143 109.939 267.01 109.363 266.743 108.872C266.477 108.381 266.114 108.008 265.655 107.752C265.207 107.485 264.711 107.352 264.167 107.352C263.623 107.352 263.127 107.48 262.679 107.736C262.231 107.992 261.874 108.365 261.607 108.856C261.341 109.347 261.207 109.923 261.207 110.584C261.207 111.256 261.341 111.843 261.607 112.344C261.874 112.835 262.231 113.213 262.679 113.48C263.127 113.736 263.623 113.864 264.167 113.864C264.711 113.864 265.207 113.736 265.655 113.48C266.114 113.213 266.477 112.835 266.743 112.344C267.01 111.843 267.143 111.261 267.143 110.6ZM274.9 115.144C274.078 115.144 273.332 114.957 272.66 114.584C271.998 114.211 271.476 113.683 271.092 113C270.718 112.307 270.532 111.507 270.532 110.6C270.532 109.704 270.724 108.915 271.108 108.232C271.502 107.539 272.036 107.011 272.708 106.648C273.38 106.275 274.132 106.088 274.964 106.088C275.796 106.088 276.548 106.275 277.22 106.648C277.892 107.011 278.42 107.533 278.804 108.216C279.198 108.899 279.396 109.693 279.396 110.6C279.396 111.507 279.193 112.307 278.788 113C278.393 113.683 277.854 114.211 277.172 114.584C276.489 114.957 275.732 115.144 274.9 115.144ZM274.9 113.864C275.422 113.864 275.913 113.741 276.372 113.496C276.83 113.251 277.198 112.883 277.476 112.392C277.764 111.901 277.908 111.304 277.908 110.6C277.908 109.896 277.769 109.299 277.492 108.808C277.214 108.317 276.852 107.955 276.404 107.72C275.956 107.475 275.47 107.352 274.948 107.352C274.414 107.352 273.924 107.475 273.476 107.72C273.038 107.955 272.686 108.317 272.42 108.808C272.153 109.299 272.02 109.896 272.02 110.6C272.02 111.315 272.148 111.917 272.404 112.408C272.67 112.899 273.022 113.267 273.46 113.512C273.897 113.747 274.377 113.864 274.9 113.864ZM286.328 104.808C286.05 104.808 285.816 104.712 285.624 104.52C285.432 104.328 285.336 104.093 285.336 103.816C285.336 103.539 285.432 103.304 285.624 103.112C285.816 102.92 286.05 102.824 286.328 102.824C286.594 102.824 286.818 102.92 287 103.112C287.192 103.304 287.288 103.539 287.288 103.816C287.288 104.093 287.192 104.328 287 104.52C286.818 104.712 286.594 104.808 286.328 104.808ZM287.032 106.232V115H285.576V106.232H287.032ZM288.969 110.584C288.969 109.688 289.151 108.904 289.513 108.232C289.876 107.549 290.372 107.021 291.001 106.648C291.641 106.275 292.356 106.088 293.145 106.088C293.828 106.088 294.463 106.248 295.049 106.568C295.636 106.877 296.084 107.288 296.393 107.8V103.16H297.865V115H296.393V113.352C296.105 113.875 295.679 114.307 295.113 114.648C294.548 114.979 293.887 115.144 293.129 115.144C292.351 115.144 291.641 114.952 291.001 114.568C290.372 114.184 289.876 113.645 289.513 112.952C289.151 112.259 288.969 111.469 288.969 110.584ZM296.393 110.6C296.393 109.939 296.26 109.363 295.993 108.872C295.727 108.381 295.364 108.008 294.905 107.752C294.457 107.485 293.961 107.352 293.417 107.352C292.873 107.352 292.377 107.48 291.929 107.736C291.481 107.992 291.124 108.365 290.857 108.856C290.591 109.347 290.457 109.923 290.457 110.584C290.457 111.256 290.591 111.843 290.857 112.344C291.124 112.835 291.481 113.213 291.929 113.48C292.377 113.736 292.873 113.864 293.417 113.864C293.961 113.864 294.457 113.736 294.905 113.48C295.364 113.213 295.727 112.835 295.993 112.344C296.26 111.843 296.393 111.261 296.393 110.6ZM308.326 110.28C308.326 110.557 308.31 110.851 308.278 111.16H301.27C301.323 112.024 301.616 112.701 302.15 113.192C302.694 113.672 303.35 113.912 304.118 113.912C304.747 113.912 305.27 113.768 305.686 113.48C306.112 113.181 306.411 112.787 306.582 112.296H308.15C307.915 113.139 307.446 113.827 306.742 114.36C306.038 114.883 305.163 115.144 304.118 115.144C303.286 115.144 302.539 114.957 301.878 114.584C301.227 114.211 300.715 113.683 300.342 113C299.968 112.307 299.782 111.507 299.782 110.6C299.782 109.693 299.963 108.899 300.326 108.216C300.688 107.533 301.195 107.011 301.846 106.648C302.507 106.275 303.264 106.088 304.118 106.088C304.95 106.088 305.686 106.269 306.326 106.632C306.966 106.995 307.456 107.496 307.798 108.136C308.15 108.765 308.326 109.48 308.326 110.28ZM306.822 109.976C306.822 109.421 306.699 108.947 306.454 108.552C306.208 108.147 305.872 107.843 305.446 107.64C305.03 107.427 304.566 107.32 304.054 107.32C303.318 107.32 302.688 107.555 302.166 108.024C301.654 108.493 301.36 109.144 301.286 109.976H306.822ZM311 104.808C310.722 104.808 310.488 104.712 310.296 104.52C310.104 104.328 310.008 104.093 310.008 103.816C310.008 103.539 310.104 103.304 310.296 103.112C310.488 102.92 310.722 102.824 311 102.824C311.266 102.824 311.49 102.92 311.672 103.112C311.864 103.304 311.96 103.539 311.96 103.816C311.96 104.093 311.864 104.328 311.672 104.52C311.49 104.712 311.266 104.808 311 104.808ZM311.704 106.232V115H310.248V106.232H311.704ZM313.641 110.584C313.641 109.688 313.822 108.904 314.185 108.232C314.548 107.549 315.044 107.021 315.673 106.648C316.313 106.275 317.022 106.088 317.801 106.088C318.569 106.088 319.236 106.253 319.801 106.584C320.366 106.915 320.788 107.331 321.065 107.832V106.232H322.537V115H321.065V113.368C320.777 113.88 320.345 114.307 319.769 114.648C319.204 114.979 318.542 115.144 317.785 115.144C317.006 115.144 316.302 114.952 315.673 114.568C315.044 114.184 314.548 113.645 314.185 112.952C313.822 112.259 313.641 111.469 313.641 110.584ZM321.065 110.6C321.065 109.939 320.932 109.363 320.665 108.872C320.398 108.381 320.036 108.008 319.577 107.752C319.129 107.485 318.633 107.352 318.089 107.352C317.545 107.352 317.049 107.48 316.601 107.736C316.153 107.992 315.796 108.365 315.529 108.856C315.262 109.347 315.129 109.923 315.129 110.584C315.129 111.256 315.262 111.843 315.529 112.344C315.796 112.835 316.153 113.213 316.601 113.48C317.049 113.736 317.545 113.864 318.089 113.864C318.633 113.864 319.129 113.736 319.577 113.48C320.036 113.213 320.398 112.835 320.665 112.344C320.932 111.843 321.065 111.261 321.065 110.6ZM328.102 115.144C327.43 115.144 326.827 115.032 326.294 114.808C325.76 114.573 325.339 114.253 325.03 113.848C324.72 113.432 324.55 112.957 324.518 112.424H326.022C326.064 112.861 326.267 113.219 326.63 113.496C327.003 113.773 327.488 113.912 328.086 113.912C328.64 113.912 329.078 113.789 329.398 113.544C329.718 113.299 329.878 112.989 329.878 112.616C329.878 112.232 329.707 111.949 329.366 111.768C329.024 111.576 328.496 111.389 327.782 111.208C327.131 111.037 326.598 110.867 326.182 110.696C325.776 110.515 325.424 110.253 325.126 109.912C324.838 109.56 324.694 109.101 324.694 108.536C324.694 108.088 324.827 107.677 325.094 107.304C325.36 106.931 325.739 106.637 326.23 106.424C326.72 106.2 327.28 106.088 327.91 106.088C328.88 106.088 329.664 106.333 330.262 106.824C330.859 107.315 331.179 107.987 331.222 108.84H329.766C329.734 108.381 329.547 108.013 329.206 107.736C328.875 107.459 328.427 107.32 327.862 107.32C327.339 107.32 326.923 107.432 326.614 107.656C326.304 107.88 326.15 108.173 326.15 108.536C326.15 108.824 326.24 109.064 326.422 109.256C326.614 109.437 326.848 109.587 327.126 109.704C327.414 109.811 327.808 109.933 328.31 110.072C328.939 110.243 329.451 110.413 329.846 110.584C330.24 110.744 330.576 110.989 330.854 111.32C331.142 111.651 331.291 112.083 331.302 112.616C331.302 113.096 331.168 113.528 330.902 113.912C330.635 114.296 330.256 114.6 329.766 114.824C329.286 115.037 328.731 115.144 328.102 115.144ZM345.623 110.28C345.623 110.557 345.607 110.851 345.575 111.16H338.567C338.62 112.024 338.913 112.701 339.447 113.192C339.991 113.672 340.647 113.912 341.415 113.912C342.044 113.912 342.567 113.768 342.983 113.48C343.409 113.181 343.708 112.787 343.879 112.296H345.447C345.212 113.139 344.743 113.827 344.039 114.36C343.335 114.883 342.46 115.144 341.415 115.144C340.583 115.144 339.836 114.957 339.175 114.584C338.524 114.211 338.012 113.683 337.639 113C337.265 112.307 337.079 111.507 337.079 110.6C337.079 109.693 337.26 108.899 337.623 108.216C337.985 107.533 338.492 107.011 339.143 106.648C339.804 106.275 340.561 106.088 341.415 106.088C342.247 106.088 342.983 106.269 343.623 106.632C344.263 106.995 344.753 107.496 345.095 108.136C345.447 108.765 345.623 109.48 345.623 110.28ZM344.119 109.976C344.119 109.421 343.996 108.947 343.751 108.552C343.505 108.147 343.169 107.843 342.743 107.64C342.327 107.427 341.863 107.32 341.351 107.32C340.615 107.32 339.985 107.555 339.463 108.024C338.951 108.493 338.657 109.144 338.583 109.976H344.119ZM358.089 106.072C358.771 106.072 359.379 106.216 359.913 106.504C360.446 106.781 360.867 107.203 361.177 107.768C361.486 108.333 361.641 109.021 361.641 109.832V115H360.201V110.04C360.201 109.165 359.982 108.499 359.545 108.04C359.118 107.571 358.537 107.336 357.801 107.336C357.043 107.336 356.441 107.581 355.993 108.072C355.545 108.552 355.321 109.251 355.321 110.168V115H353.881V110.04C353.881 109.165 353.662 108.499 353.225 108.04C352.798 107.571 352.217 107.336 351.481 107.336C350.723 107.336 350.121 107.581 349.673 108.072C349.225 108.552 349.001 109.251 349.001 110.168V115H347.545V106.232H349.001V107.496C349.289 107.037 349.673 106.685 350.153 106.44C350.643 106.195 351.182 106.072 351.769 106.072C352.505 106.072 353.155 106.237 353.721 106.568C354.286 106.899 354.707 107.384 354.985 108.024C355.23 107.405 355.635 106.925 356.201 106.584C356.766 106.243 357.395 106.072 358.089 106.072ZM376.295 110.28C376.295 110.557 376.279 110.851 376.247 111.16H369.239C369.292 112.024 369.585 112.701 370.119 113.192C370.663 113.672 371.319 113.912 372.087 113.912C372.716 113.912 373.239 113.768 373.655 113.48C374.081 113.181 374.38 112.787 374.551 112.296H376.119C375.884 113.139 375.415 113.827 374.711 114.36C374.007 114.883 373.132 115.144 372.087 115.144C371.255 115.144 370.508 114.957 369.847 114.584C369.196 114.211 368.684 113.683 368.311 113C367.937 112.307 367.751 111.507 367.751 110.6C367.751 109.693 367.932 108.899 368.295 108.216C368.657 107.533 369.164 107.011 369.815 106.648C370.476 106.275 371.233 106.088 372.087 106.088C372.919 106.088 373.655 106.269 374.295 106.632C374.935 106.995 375.425 107.496 375.767 108.136C376.119 108.765 376.295 109.48 376.295 110.28ZM374.791 109.976C374.791 109.421 374.668 108.947 374.423 108.552C374.177 108.147 373.841 107.843 373.415 107.64C372.999 107.427 372.535 107.32 372.023 107.32C371.287 107.32 370.657 107.555 370.135 108.024C369.623 108.493 369.329 109.144 369.255 109.976H374.791ZM382.792 115L380.712 111.736L378.712 115H377.192L380.024 110.648L377.192 106.232H378.84L380.92 109.48L382.904 106.232H384.424L381.608 110.568L384.44 115H382.792ZM387.329 107.848C387.617 107.347 388.043 106.931 388.609 106.6C389.185 106.259 389.851 106.088 390.609 106.088C391.387 106.088 392.091 106.275 392.721 106.648C393.361 107.021 393.862 107.549 394.225 108.232C394.587 108.904 394.769 109.688 394.769 110.584C394.769 111.469 394.587 112.259 394.225 112.952C393.862 113.645 393.361 114.184 392.721 114.568C392.091 114.952 391.387 115.144 390.609 115.144C389.862 115.144 389.201 114.979 388.625 114.648C388.059 114.307 387.627 113.885 387.329 113.384V119.16H385.873V106.232H387.329V107.848ZM393.281 110.584C393.281 109.923 393.147 109.347 392.881 108.856C392.614 108.365 392.251 107.992 391.793 107.736C391.345 107.48 390.849 107.352 390.305 107.352C389.771 107.352 389.275 107.485 388.817 107.752C388.369 108.008 388.006 108.387 387.729 108.888C387.462 109.379 387.329 109.949 387.329 110.6C387.329 111.261 387.462 111.843 387.729 112.344C388.006 112.835 388.369 113.213 388.817 113.48C389.275 113.736 389.771 113.864 390.305 113.864C390.849 113.864 391.345 113.736 391.793 113.48C392.251 113.213 392.614 112.835 392.881 112.344C393.147 111.843 393.281 111.256 393.281 110.584ZM404.685 110.28C404.685 110.557 404.669 110.851 404.637 111.16H397.629C397.682 112.024 397.976 112.701 398.509 113.192C399.053 113.672 399.709 113.912 400.477 113.912C401.106 113.912 401.629 113.768 402.045 113.48C402.472 113.181 402.77 112.787 402.941 112.296H404.509C404.274 113.139 403.805 113.827 403.101 114.36C402.397 114.883 401.522 115.144 400.477 115.144C399.645 115.144 398.898 114.957 398.237 114.584C397.586 114.211 397.074 113.683 396.701 113C396.328 112.307 396.141 111.507 396.141 110.6C396.141 109.693 396.322 108.899 396.685 108.216C397.048 107.533 397.554 107.011 398.205 106.648C398.866 106.275 399.624 106.088 400.477 106.088C401.309 106.088 402.045 106.269 402.685 106.632C403.325 106.995 403.816 107.496 404.157 108.136C404.509 108.765 404.685 109.48 404.685 110.28ZM403.181 109.976C403.181 109.421 403.058 108.947 402.813 108.552C402.568 108.147 402.232 107.843 401.805 107.64C401.389 107.427 400.925 107.32 400.413 107.32C399.677 107.32 399.048 107.555 398.525 108.024C398.013 108.493 397.72 109.144 397.645 109.976H403.181ZM408.063 107.656C408.319 107.155 408.682 106.765 409.151 106.488C409.631 106.211 410.212 106.072 410.895 106.072V107.576H410.511C408.879 107.576 408.063 108.461 408.063 110.232V115H406.607V106.232H408.063V107.656ZM413.328 104.808C413.05 104.808 412.816 104.712 412.624 104.52C412.432 104.328 412.336 104.093 412.336 103.816C412.336 103.539 412.432 103.304 412.624 103.112C412.816 102.92 413.05 102.824 413.328 102.824C413.594 102.824 413.818 102.92 414 103.112C414.192 103.304 414.288 103.539 414.288 103.816C414.288 104.093 414.192 104.328 414 104.52C413.818 104.712 413.594 104.808 413.328 104.808ZM414.032 106.232V115H412.576V106.232H414.032ZM424.513 110.28C424.513 110.557 424.497 110.851 424.465 111.16H417.457C417.511 112.024 417.804 112.701 418.337 113.192C418.881 113.672 419.537 113.912 420.305 113.912C420.935 113.912 421.457 113.768 421.873 113.48C422.3 113.181 422.599 112.787 422.769 112.296H424.337C424.103 113.139 423.633 113.827 422.929 114.36C422.225 114.883 421.351 115.144 420.305 115.144C419.473 115.144 418.727 114.957 418.065 114.584C417.415 114.211 416.903 113.683 416.529 113C416.156 112.307 415.969 111.507 415.969 110.6C415.969 109.693 416.151 108.899 416.513 108.216C416.876 107.533 417.383 107.011 418.033 106.648C418.695 106.275 419.452 106.088 420.305 106.088C421.137 106.088 421.873 106.269 422.513 106.632C423.153 106.995 423.644 107.496 423.985 108.136C424.337 108.765 424.513 109.48 424.513 110.28ZM423.009 109.976C423.009 109.421 422.887 108.947 422.641 108.552C422.396 108.147 422.06 107.843 421.633 107.64C421.217 107.427 420.753 107.32 420.241 107.32C419.505 107.32 418.876 107.555 418.353 108.024C417.841 108.493 417.548 109.144 417.473 109.976H423.009ZM420.257 104.088L418.033 105.448V104.296L420.257 102.968L422.465 104.296V105.448L420.257 104.088ZM430.707 106.072C431.774 106.072 432.638 106.397 433.299 107.048C433.96 107.688 434.291 108.616 434.291 109.832V115H432.851V110.04C432.851 109.165 432.632 108.499 432.195 108.04C431.758 107.571 431.16 107.336 430.403 107.336C429.635 107.336 429.022 107.576 428.563 108.056C428.115 108.536 427.891 109.235 427.891 110.152V115H426.435V106.232H427.891V107.48C428.179 107.032 428.568 106.685 429.059 106.44C429.56 106.195 430.11 106.072 430.707 106.072ZM436.126 110.6C436.126 109.693 436.307 108.904 436.67 108.232C437.032 107.549 437.534 107.021 438.174 106.648C438.824 106.275 439.566 106.088 440.398 106.088C441.475 106.088 442.36 106.349 443.054 106.872C443.758 107.395 444.222 108.12 444.446 109.048H442.878C442.728 108.515 442.435 108.093 441.998 107.784C441.571 107.475 441.038 107.32 440.398 107.32C439.566 107.32 438.894 107.608 438.382 108.184C437.87 108.749 437.614 109.555 437.614 110.6C437.614 111.656 437.87 112.472 438.382 113.048C438.894 113.624 439.566 113.912 440.398 113.912C441.038 113.912 441.571 113.763 441.998 113.464C442.424 113.165 442.718 112.739 442.878 112.184H444.446C444.211 113.08 443.742 113.8 443.038 114.344C442.334 114.877 441.454 115.144 440.398 115.144C439.566 115.144 438.824 114.957 438.174 114.584C437.534 114.211 437.032 113.683 436.67 113C436.307 112.317 436.126 111.517 436.126 110.6ZM447.14 104.808C446.863 104.808 446.628 104.712 446.436 104.52C446.244 104.328 446.148 104.093 446.148 103.816C446.148 103.539 446.244 103.304 446.436 103.112C446.628 102.92 446.863 102.824 447.14 102.824C447.407 102.824 447.631 102.92 447.812 103.112C448.004 103.304 448.1 103.539 448.1 103.816C448.1 104.093 448.004 104.328 447.812 104.52C447.631 104.712 447.407 104.808 447.14 104.808ZM447.844 106.232V115H446.388V106.232H447.844ZM449.782 110.584C449.782 109.688 449.963 108.904 450.326 108.232C450.688 107.549 451.184 107.021 451.814 106.648C452.454 106.275 453.163 106.088 453.942 106.088C454.71 106.088 455.376 106.253 455.942 106.584C456.507 106.915 456.928 107.331 457.206 107.832V106.232H458.678V115H457.206V113.368C456.918 113.88 456.486 114.307 455.91 114.648C455.344 114.979 454.683 115.144 453.926 115.144C453.147 115.144 452.443 114.952 451.814 114.568C451.184 114.184 450.688 113.645 450.326 112.952C449.963 112.259 449.782 111.469 449.782 110.584ZM457.206 110.6C457.206 109.939 457.072 109.363 456.806 108.872C456.539 108.381 456.176 108.008 455.718 107.752C455.27 107.485 454.774 107.352 454.23 107.352C453.686 107.352 453.19 107.48 452.742 107.736C452.294 107.992 451.936 108.365 451.67 108.856C451.403 109.347 451.27 109.923 451.27 110.584C451.27 111.256 451.403 111.843 451.67 112.344C451.936 112.835 452.294 113.213 452.742 113.48C453.19 113.736 453.686 113.864 454.23 113.864C454.774 113.864 455.27 113.736 455.718 113.48C456.176 113.213 456.539 112.835 456.806 112.344C457.072 111.843 457.206 111.261 457.206 110.6ZM464.242 115.144C463.57 115.144 462.968 115.032 462.434 114.808C461.901 114.573 461.48 114.253 461.17 113.848C460.861 113.432 460.69 112.957 460.658 112.424H462.162C462.205 112.861 462.408 113.219 462.77 113.496C463.144 113.773 463.629 113.912 464.226 113.912C464.781 113.912 465.218 113.789 465.538 113.544C465.858 113.299 466.018 112.989 466.018 112.616C466.018 112.232 465.848 111.949 465.506 111.768C465.165 111.576 464.637 111.389 463.922 111.208C463.272 111.037 462.738 110.867 462.322 110.696C461.917 110.515 461.565 110.253 461.266 109.912C460.978 109.56 460.834 109.101 460.834 108.536C460.834 108.088 460.968 107.677 461.234 107.304C461.501 106.931 461.88 106.637 462.37 106.424C462.861 106.2 463.421 106.088 464.05 106.088C465.021 106.088 465.805 106.333 466.402 106.824C467 107.315 467.32 107.987 467.362 108.84H465.906C465.874 108.381 465.688 108.013 465.346 107.736C465.016 107.459 464.568 107.32 464.002 107.32C463.48 107.32 463.064 107.432 462.754 107.656C462.445 107.88 462.29 108.173 462.29 108.536C462.29 108.824 462.381 109.064 462.562 109.256C462.754 109.437 462.989 109.587 463.266 109.704C463.554 109.811 463.949 109.933 464.45 110.072C465.08 110.243 465.592 110.413 465.986 110.584C466.381 110.744 466.717 110.989 466.994 111.32C467.282 111.651 467.432 112.083 467.442 112.616C467.442 113.096 467.309 113.528 467.042 113.912C466.776 114.296 466.397 114.6 465.906 114.824C465.426 115.037 464.872 115.144 464.242 115.144ZM473.219 110.584C473.219 109.688 473.401 108.904 473.763 108.232C474.126 107.549 474.622 107.021 475.251 106.648C475.891 106.275 476.606 106.088 477.395 106.088C478.153 106.088 478.814 106.259 479.379 106.6C479.955 106.931 480.377 107.341 480.643 107.832V106.232H482.115V119.16H480.643V113.384C480.366 113.875 479.939 114.291 479.363 114.632C478.787 114.973 478.115 115.144 477.347 115.144C476.579 115.144 475.881 114.952 475.251 114.568C474.622 114.184 474.126 113.645 473.763 112.952C473.401 112.259 473.219 111.469 473.219 110.584ZM480.643 110.6C480.643 109.939 480.51 109.363 480.243 108.872C479.977 108.381 479.614 108.008 479.155 107.752C478.707 107.485 478.211 107.352 477.667 107.352C477.123 107.352 476.627 107.48 476.179 107.736C475.731 107.992 475.374 108.365 475.107 108.856C474.841 109.347 474.707 109.923 474.707 110.584C474.707 111.256 474.841 111.843 475.107 112.344C475.374 112.835 475.731 113.213 476.179 113.48C476.627 113.736 477.123 113.864 477.667 113.864C478.211 113.864 478.707 113.736 479.155 113.48C479.614 113.213 479.977 112.835 480.243 112.344C480.51 111.843 480.643 111.261 480.643 110.6ZM492.352 106.232V115H490.896V113.704C490.618 114.152 490.229 114.504 489.728 114.76C489.237 115.005 488.693 115.128 488.096 115.128C487.413 115.128 486.8 114.989 486.256 114.712C485.712 114.424 485.28 113.997 484.96 113.432C484.65 112.867 484.496 112.179 484.496 111.368V106.232H485.936V111.176C485.936 112.04 486.154 112.707 486.592 113.176C487.029 113.635 487.626 113.864 488.384 113.864C489.162 113.864 489.776 113.624 490.224 113.144C490.672 112.664 490.896 111.965 490.896 111.048V106.232H492.352ZM502.81 110.28C502.81 110.557 502.794 110.851 502.762 111.16H495.754C495.807 112.024 496.101 112.701 496.634 113.192C497.178 113.672 497.834 113.912 498.602 113.912C499.231 113.912 499.754 113.768 500.17 113.48C500.597 113.181 500.895 112.787 501.066 112.296H502.634C502.399 113.139 501.93 113.827 501.226 114.36C500.522 114.883 499.647 115.144 498.602 115.144C497.77 115.144 497.023 114.957 496.362 114.584C495.711 114.211 495.199 113.683 494.826 113C494.453 112.307 494.266 111.507 494.266 110.6C494.266 109.693 494.447 108.899 494.81 108.216C495.173 107.533 495.679 107.011 496.33 106.648C496.991 106.275 497.749 106.088 498.602 106.088C499.434 106.088 500.17 106.269 500.81 106.632C501.45 106.995 501.941 107.496 502.282 108.136C502.634 108.765 502.81 109.48 502.81 110.28ZM501.306 109.976C501.306 109.421 501.183 108.947 500.938 108.552C500.693 108.147 500.357 107.843 499.93 107.64C499.514 107.427 499.05 107.32 498.538 107.32C497.802 107.32 497.173 107.555 496.65 108.024C496.138 108.493 495.845 109.144 495.77 109.976H501.306ZM516.998 110.28C516.998 110.557 516.982 110.851 516.95 111.16H509.942C509.995 112.024 510.288 112.701 510.822 113.192C511.366 113.672 512.022 113.912 512.79 113.912C513.419 113.912 513.942 113.768 514.358 113.48C514.784 113.181 515.083 112.787 515.254 112.296H516.822C516.587 113.139 516.118 113.827 515.414 114.36C514.71 114.883 513.835 115.144 512.79 115.144C511.958 115.144 511.211 114.957 510.55 114.584C509.899 114.211 509.387 113.683 509.014 113C508.64 112.307 508.454 111.507 508.454 110.6C508.454 109.693 508.635 108.899 508.998 108.216C509.36 107.533 509.867 107.011 510.518 106.648C511.179 106.275 511.936 106.088 512.79 106.088C513.622 106.088 514.358 106.269 514.998 106.632C515.638 106.995 516.128 107.496 516.47 108.136C516.822 108.765 516.998 109.48 516.998 110.28ZM515.494 109.976C515.494 109.421 515.371 108.947 515.126 108.552C514.88 108.147 514.544 107.843 514.118 107.64C513.702 107.427 513.238 107.32 512.726 107.32C511.99 107.32 511.36 107.555 510.838 108.024C510.326 108.493 510.032 109.144 509.958 109.976H515.494ZM523.192 106.072C524.258 106.072 525.122 106.397 525.784 107.048C526.445 107.688 526.776 108.616 526.776 109.832V115H525.336V110.04C525.336 109.165 525.117 108.499 524.68 108.04C524.242 107.571 523.645 107.336 522.888 107.336C522.12 107.336 521.506 107.576 521.048 108.056C520.6 108.536 520.376 109.235 520.376 110.152V115H518.92V106.232H520.376V107.48C520.664 107.032 521.053 106.685 521.544 106.44C522.045 106.195 522.594 106.072 523.192 106.072ZM528.61 110.6C528.61 109.693 528.791 108.904 529.154 108.232C529.517 107.549 530.018 107.021 530.658 106.648C531.309 106.275 532.05 106.088 532.882 106.088C533.959 106.088 534.845 106.349 535.538 106.872C536.242 107.395 536.706 108.12 536.93 109.048H535.362C535.213 108.515 534.919 108.093 534.482 107.784C534.055 107.475 533.522 107.32 532.882 107.32C532.05 107.32 531.378 107.608 530.866 108.184C530.354 108.749 530.098 109.555 530.098 110.6C530.098 111.656 530.354 112.472 530.866 113.048C531.378 113.624 532.05 113.912 532.882 113.912C533.522 113.912 534.055 113.763 534.482 113.464C534.909 113.165 535.202 112.739 535.362 112.184H536.93C536.695 113.08 536.226 113.8 535.522 114.344C534.818 114.877 533.938 115.144 532.882 115.144C532.05 115.144 531.309 114.957 530.658 114.584C530.018 114.211 529.517 113.683 529.154 113C528.791 112.317 528.61 111.517 528.61 110.6ZM538.329 110.584C538.329 109.688 538.51 108.904 538.873 108.232C539.235 107.549 539.731 107.021 540.361 106.648C541.001 106.275 541.71 106.088 542.489 106.088C543.257 106.088 543.923 106.253 544.489 106.584C545.054 106.915 545.475 107.331 545.753 107.832V106.232H547.225V115H545.753V113.368C545.465 113.88 545.033 114.307 544.457 114.648C543.891 114.979 543.23 115.144 542.473 115.144C541.694 115.144 540.99 114.952 540.361 114.568C539.731 114.184 539.235 113.645 538.873 112.952C538.51 112.259 538.329 111.469 538.329 110.584ZM545.753 110.6C545.753 109.939 545.619 109.363 545.353 108.872C545.086 108.381 544.723 108.008 544.265 107.752C543.817 107.485 543.321 107.352 542.777 107.352C542.233 107.352 541.737 107.48 541.289 107.736C540.841 107.992 540.483 108.365 540.217 108.856C539.95 109.347 539.817 109.923 539.817 110.584C539.817 111.256 539.95 111.843 540.217 112.344C540.483 112.835 540.841 113.213 541.289 113.48C541.737 113.736 542.233 113.864 542.777 113.864C543.321 113.864 543.817 113.736 544.265 113.48C544.723 113.213 545.086 112.835 545.353 112.344C545.619 111.843 545.753 111.261 545.753 110.6ZM553.957 106.072C555.024 106.072 555.888 106.397 556.549 107.048C557.21 107.688 557.541 108.616 557.541 109.832V115H556.101V110.04C556.101 109.165 555.882 108.499 555.445 108.04C555.008 107.571 554.41 107.336 553.653 107.336C552.885 107.336 552.272 107.576 551.813 108.056C551.365 108.536 551.141 109.235 551.141 110.152V115H549.685V106.232H551.141V107.48C551.429 107.032 551.818 106.685 552.309 106.44C552.81 106.195 553.36 106.072 553.957 106.072ZM561.696 107.432V112.6C561.696 113.027 561.786 113.331 561.968 113.512C562.149 113.683 562.464 113.768 562.911 113.768H563.984V115H562.672C561.861 115 561.253 114.813 560.848 114.44C560.442 114.067 560.24 113.453 560.24 112.6V107.432H559.104V106.232H560.24V104.024H561.696V106.232H563.984V107.432H561.696ZM565.204 110.584C565.204 109.688 565.385 108.904 565.748 108.232C566.11 107.549 566.606 107.021 567.236 106.648C567.876 106.275 568.585 106.088 569.364 106.088C570.132 106.088 570.798 106.253 571.364 106.584C571.929 106.915 572.35 107.331 572.628 107.832V106.232H574.1V115H572.628V113.368C572.34 113.88 571.908 114.307 571.332 114.648C570.766 114.979 570.105 115.144 569.348 115.144C568.569 115.144 567.865 114.952 567.236 114.568C566.606 114.184 566.11 113.645 565.748 112.952C565.385 112.259 565.204 111.469 565.204 110.584ZM572.628 110.6C572.628 109.939 572.494 109.363 572.228 108.872C571.961 108.381 571.598 108.008 571.14 107.752C570.692 107.485 570.196 107.352 569.652 107.352C569.108 107.352 568.612 107.48 568.164 107.736C567.716 107.992 567.358 108.365 567.092 108.856C566.825 109.347 566.692 109.923 566.692 110.584C566.692 111.256 566.825 111.843 567.092 112.344C567.358 112.835 567.716 113.213 568.164 113.48C568.612 113.736 569.108 113.864 569.652 113.864C570.196 113.864 570.692 113.736 571.14 113.48C571.598 113.213 571.961 112.835 572.228 112.344C572.494 111.843 572.628 111.261 572.628 110.6ZM587.104 106.072C587.787 106.072 588.395 106.216 588.928 106.504C589.461 106.781 589.883 107.203 590.192 107.768C590.501 108.333 590.656 109.021 590.656 109.832V115H589.216V110.04C589.216 109.165 588.997 108.499 588.56 108.04C588.133 107.571 587.552 107.336 586.816 107.336C586.059 107.336 585.456 107.581 585.008 108.072C584.56 108.552 584.336 109.251 584.336 110.168V115H582.896V110.04C582.896 109.165 582.677 108.499 582.24 108.04C581.813 107.571 581.232 107.336 580.496 107.336C579.739 107.336 579.136 107.581 578.688 108.072C578.24 108.552 578.016 109.251 578.016 110.168V115H576.56V106.232H578.016V107.496C578.304 107.037 578.688 106.685 579.168 106.44C579.659 106.195 580.197 106.072 580.784 106.072C581.52 106.072 582.171 106.237 582.736 106.568C583.301 106.899 583.723 107.384 584 108.024C584.245 107.405 584.651 106.925 585.216 106.584C585.781 106.243 586.411 106.072 587.104 106.072ZM593.509 115.096C593.231 115.096 592.997 115 592.805 114.808C592.613 114.616 592.517 114.381 592.517 114.104C592.517 113.827 592.613 113.592 592.805 113.4C592.997 113.208 593.231 113.112 593.509 113.112C593.775 113.112 593.999 113.208 594.181 113.4C594.373 113.592 594.469 113.827 594.469 114.104C594.469 114.381 594.373 114.616 594.181 114.808C593.999 115 593.775 115.096 593.509 115.096Z" fill="white"/>
<defs>
<linearGradient id="paint0_linear_10_850" x1="0" y1="0" x2="785.236" y2="135.207" gradientUnits="userSpaceOnUse">
<stop offset="0.5" stop-color="#1A237E"/>
<stop offset="1" stop-color="#303F9F"/>
</linearGradient>
</defs>
</svg>
