<svg width="28" height="28" viewBox="0 0 28 28" fill="none" xmlns="http://www.w3.org/2000/svg">
<path d="M13.9999 2.33325C12.4678 2.33325 10.9507 2.63502 9.53528 3.22132C8.11981 3.80763 6.83369 4.66699 5.75034 5.75034C3.56242 7.93826 2.33325 10.9057 2.33325 13.9999C2.33325 19.1566 5.68159 23.5316 10.3133 25.0833C10.8966 25.1766 11.0833 24.8149 11.0833 24.4999V22.5283C7.85159 23.2283 7.16325 20.9649 7.16325 20.9649C6.62658 19.6116 5.86825 19.2499 5.86825 19.2499C4.80659 18.5266 5.94992 18.5499 5.94992 18.5499C7.11659 18.6316 7.73492 19.7516 7.73492 19.7516C8.74992 21.5249 10.4649 20.9999 11.1299 20.7199C11.2349 19.9616 11.5383 19.4483 11.8649 19.1566C9.27492 18.8649 6.55659 17.8616 6.55659 13.4166C6.55659 12.1216 6.99992 11.0833 7.75825 10.2549C7.64159 9.96325 7.23325 8.74992 7.87492 7.17492C7.87492 7.17492 8.85492 6.85992 11.0833 8.36492C12.0049 8.10825 13.0083 7.97992 13.9999 7.97992C14.9916 7.97992 15.9949 8.10825 16.9166 8.36492C19.1449 6.85992 20.1249 7.17492 20.1249 7.17492C20.7666 8.74992 20.3583 9.96325 20.2416 10.2549C20.9999 11.0833 21.4433 12.1216 21.4433 13.4166C21.4433 17.8733 18.7133 18.8533 16.1116 19.1449C16.5316 19.5066 16.9166 20.2183 16.9166 21.3033V24.4999C16.9166 24.8149 17.1033 25.1883 17.6983 25.0833C22.3299 23.5199 25.6666 19.1566 25.6666 13.9999C25.6666 12.4678 25.3648 10.9507 24.7785 9.53528C24.1922 8.11981 23.3328 6.83369 22.2495 5.75034C21.1661 4.66699 19.88 3.80763 18.4646 3.22132C17.0491 2.63502 15.532 2.33325 13.9999 2.33325Z" fill="white"/>
</svg>
