<svg width="28" height="28" viewBox="0 0 28 28" fill="none" xmlns="http://www.w3.org/2000/svg">
<path d="M14.0466 2.33331C7.6766 2.33331 2.48494 7.52498 2.48494 13.895C2.48494 15.9366 3.0216 17.92 4.02493 19.67L2.3916 25.6666L8.5166 24.0567C10.2083 24.9783 12.1099 25.4683 14.0466 25.4683C20.4166 25.4683 25.6083 20.2767 25.6083 13.9066C25.6083 10.815 24.4066 7.90998 22.2249 5.72831C21.1552 4.64811 19.8811 3.79161 18.477 3.20874C17.0729 2.62587 15.5669 2.32828 14.0466 2.33331ZM14.0583 4.28165C16.6249 4.28165 19.0283 5.28498 20.8483 7.10498C21.7412 7.99809 22.4492 9.05858 22.9317 10.2257C23.4141 11.3929 23.6616 12.6437 23.6599 13.9066C23.6599 19.2033 19.3433 23.5083 14.0466 23.5083C12.3199 23.5083 10.6283 23.0533 9.15827 22.1666L8.80827 21.9683L5.16827 22.925L6.1366 19.3783L5.90327 19.005C4.94024 17.4748 4.43055 15.703 4.43327 13.895C4.44493 8.59832 8.74993 4.28165 14.0583 4.28165ZM9.9516 8.55165C9.76493 8.55165 9.44993 8.62165 9.1816 8.91332C8.92493 9.20498 8.1666 9.91665 8.1666 11.3283C8.1666 12.7516 9.20493 14.1167 9.33327 14.315C9.4966 14.5133 11.3866 17.43 14.2916 18.6666C14.9799 18.9816 15.5166 19.1567 15.9366 19.285C16.6249 19.5067 17.2549 19.4716 17.7566 19.4016C18.3166 19.32 19.4599 18.7016 19.7049 18.025C19.9499 17.3483 19.9499 16.7767 19.8799 16.6483C19.7983 16.5317 19.6116 16.4616 19.3199 16.3333C19.0283 16.17 17.6049 15.47 17.3483 15.3766C17.0799 15.2833 16.9166 15.2366 16.6949 15.5166C16.5083 15.8083 15.9483 16.4617 15.7849 16.6483C15.6099 16.8467 15.4466 16.87 15.1666 16.73C14.8633 16.5783 13.9299 16.275 12.8333 15.295C11.9699 14.525 11.3983 13.58 11.2233 13.2883C11.0833 13.0083 11.2116 12.8333 11.3516 12.705C11.4799 12.5766 11.6666 12.3666 11.7833 12.1916C11.9349 12.0283 11.9816 11.9 12.0749 11.7133C12.1683 11.515 12.1216 11.3516 12.0516 11.2116C11.9816 11.0833 11.3983 9.63665 11.1533 9.06498C10.9199 8.50498 10.6866 8.57498 10.4999 8.56332C10.3366 8.56332 10.1499 8.55165 9.9516 8.55165Z" fill="white"/>
</svg>
